M48
; DRILL file {KiCad (5.1.8)-1} date 01/03/21 01:35:49
; FORMAT={-:-/ absolute / metric / decimal}
; #@! TF.CreationDate,2021-01-03T01:35:49+11:00
; #@! TF.GenerationSoftware,Kicad,Pcbnew,(5.1.8)-1
; #@! TF.FileFunction,Plated,1,4,PTH
FMAT,2
METRIC
T1C0.300
T2C0.400
%
G90
G05
T1
X107.315Y-108.077
X109.855Y-108.077
X112.395Y-108.077
X114.935Y-108.077
X117.475Y-108.077
X120.015Y-108.077
X122.555Y-108.077
X125.095Y-108.077
X127.635Y-108.077
X130.175Y-108.077
X132.715Y-108.077
X135.255Y-108.077
X137.795Y-108.077
X140.335Y-108.077
X142.875Y-108.077
X145.415Y-108.077
X147.955Y-108.077
X150.495Y-108.077
X153.035Y-108.077
X155.575Y-108.077
X158.115Y-108.077
X160.655Y-108.077
X163.195Y-108.077
X165.735Y-108.077
X168.275Y-108.077
X170.815Y-108.077
X173.355Y-108.077
X175.895Y-108.077
X178.435Y-108.077
X180.975Y-108.077
T2
X114.349Y-106.96
X114.953Y-101.014
X116.525Y-99.179
X117.93Y-98.757
X118.393Y-95.551
X120.523Y-98.766
X121.92Y-105.889
X121.92Y-106.934
X122.499Y-102.663
X123.063Y-98.724
X123.606Y-95.552
X125.578Y-99.163
X129.441Y-103.061
X129.45Y-105.918
X129.704Y-101.979
X130.537Y-101.397
X131.569Y-103.403
X132.713Y-102.636
X135.255Y-98.127
X139.896Y-98.779
X143.905Y-104.492
X144.018Y-95.377
X144.018Y-96.52
X144.018Y-97.649
X145.14Y-102.666
X145.288Y-99.454
X146.241Y-102.067
X151.208Y-99.943
X153.894Y-96.691
X154.621Y-102.062
X154.82Y-97.592
X155.668Y-100.42
X156.095Y-102.426
X158.371Y-100.149
X158.713Y-97.797
X161.165Y-100.834
X163.28Y-101.544
X163.428Y-105.89
X167.269Y-100.061
X167.546Y-95.83
X168.586Y-96.077
X170.194Y-105.259
X170.307Y-98.787
X170.307Y-99.822
X170.319Y-100.813
X172.11Y-102.635
X172.151Y-99.772
T0
M30
