%TF.GenerationSoftware,KiCad,Pcbnew,(5.1.8)-1*%
%TF.CreationDate,2021-01-04T22:47:04+11:00*%
%TF.ProjectId,30pinsimm,33307069-6e73-4696-9d6d-2e6b69636164,rev?*%
%TF.SameCoordinates,Original*%
%TF.FileFunction,Legend,Bot*%
%TF.FilePolarity,Positive*%
%FSLAX46Y46*%
G04 Gerber Fmt 4.6, Leading zero omitted, Abs format (unit mm)*
G04 Created by KiCad (PCBNEW (5.1.8)-1) date 2021-01-04 22:47:04*
%MOMM*%
%LPD*%
G01*
G04 APERTURE LIST*
%ADD10C,0.100000*%
%ADD11C,0.250000*%
G04 APERTURE END LIST*
D10*
G36*
X147701000Y-97790000D02*
G01*
X134277100Y-97790000D01*
X134277100Y-95961200D01*
X147701000Y-95961200D01*
X147701000Y-97790000D01*
G37*
X147701000Y-97790000D02*
X134277100Y-97790000D01*
X134277100Y-95961200D01*
X147701000Y-95961200D01*
X147701000Y-97790000D01*
D11*
X185251000Y-97226380D02*
X185251000Y-96226380D01*
X184822428Y-97226380D02*
X184822428Y-96702571D01*
X184870047Y-96607333D01*
X184965285Y-96559714D01*
X185108142Y-96559714D01*
X185203380Y-96607333D01*
X185251000Y-96654952D01*
X184489095Y-96559714D02*
X184108142Y-96559714D01*
X184346238Y-96226380D02*
X184346238Y-97083523D01*
X184298619Y-97178761D01*
X184203380Y-97226380D01*
X184108142Y-97226380D01*
X183917666Y-96559714D02*
X183536714Y-96559714D01*
X183774809Y-96226380D02*
X183774809Y-97083523D01*
X183727190Y-97178761D01*
X183631952Y-97226380D01*
X183536714Y-97226380D01*
X183203380Y-96559714D02*
X183203380Y-97559714D01*
X183203380Y-96607333D02*
X183108142Y-96559714D01*
X182917666Y-96559714D01*
X182822428Y-96607333D01*
X182774809Y-96654952D01*
X182727190Y-96750190D01*
X182727190Y-97035904D01*
X182774809Y-97131142D01*
X182822428Y-97178761D01*
X182917666Y-97226380D01*
X183108142Y-97226380D01*
X183203380Y-97178761D01*
X182346238Y-97178761D02*
X182251000Y-97226380D01*
X182060523Y-97226380D01*
X181965285Y-97178761D01*
X181917666Y-97083523D01*
X181917666Y-97035904D01*
X181965285Y-96940666D01*
X182060523Y-96893047D01*
X182203380Y-96893047D01*
X182298619Y-96845428D01*
X182346238Y-96750190D01*
X182346238Y-96702571D01*
X182298619Y-96607333D01*
X182203380Y-96559714D01*
X182060523Y-96559714D01*
X181965285Y-96607333D01*
X181489095Y-97131142D02*
X181441476Y-97178761D01*
X181489095Y-97226380D01*
X181536714Y-97178761D01*
X181489095Y-97131142D01*
X181489095Y-97226380D01*
X181489095Y-96607333D02*
X181441476Y-96654952D01*
X181489095Y-96702571D01*
X181536714Y-96654952D01*
X181489095Y-96607333D01*
X181489095Y-96702571D01*
X180298619Y-96178761D02*
X181155761Y-97464476D01*
X179251000Y-96178761D02*
X180108142Y-97464476D01*
X178917666Y-96559714D02*
X178917666Y-97559714D01*
X178917666Y-96607333D02*
X178822428Y-96559714D01*
X178631952Y-96559714D01*
X178536714Y-96607333D01*
X178489095Y-96654952D01*
X178441476Y-96750190D01*
X178441476Y-97035904D01*
X178489095Y-97131142D01*
X178536714Y-97178761D01*
X178631952Y-97226380D01*
X178822428Y-97226380D01*
X178917666Y-97178761D01*
X177584333Y-97178761D02*
X177679571Y-97226380D01*
X177870047Y-97226380D01*
X177965285Y-97178761D01*
X178012904Y-97131142D01*
X178060523Y-97035904D01*
X178060523Y-96750190D01*
X178012904Y-96654952D01*
X177965285Y-96607333D01*
X177870047Y-96559714D01*
X177679571Y-96559714D01*
X177584333Y-96607333D01*
X177155761Y-97226380D02*
X177155761Y-96226380D01*
X177155761Y-96607333D02*
X177060523Y-96559714D01*
X176870047Y-96559714D01*
X176774809Y-96607333D01*
X176727190Y-96654952D01*
X176679571Y-96750190D01*
X176679571Y-97035904D01*
X176727190Y-97131142D01*
X176774809Y-97178761D01*
X176870047Y-97226380D01*
X177060523Y-97226380D01*
X177155761Y-97178761D01*
X176251000Y-97131142D02*
X176203380Y-97178761D01*
X176251000Y-97226380D01*
X176298619Y-97178761D01*
X176251000Y-97131142D01*
X176251000Y-97226380D01*
X175774809Y-97226380D02*
X175774809Y-96226380D01*
X175346238Y-97226380D02*
X175346238Y-96702571D01*
X175393857Y-96607333D01*
X175489095Y-96559714D01*
X175631952Y-96559714D01*
X175727190Y-96607333D01*
X175774809Y-96654952D01*
X174489095Y-97178761D02*
X174584333Y-97226380D01*
X174774809Y-97226380D01*
X174870047Y-97178761D01*
X174917666Y-97083523D01*
X174917666Y-96702571D01*
X174870047Y-96607333D01*
X174774809Y-96559714D01*
X174584333Y-96559714D01*
X174489095Y-96607333D01*
X174441476Y-96702571D01*
X174441476Y-96797809D01*
X174917666Y-96893047D01*
X173584333Y-96559714D02*
X173584333Y-97369238D01*
X173631952Y-97464476D01*
X173679571Y-97512095D01*
X173774809Y-97559714D01*
X173917666Y-97559714D01*
X174012904Y-97512095D01*
X173584333Y-97178761D02*
X173679571Y-97226380D01*
X173870047Y-97226380D01*
X173965285Y-97178761D01*
X174012904Y-97131142D01*
X174060523Y-97035904D01*
X174060523Y-96750190D01*
X174012904Y-96654952D01*
X173965285Y-96607333D01*
X173870047Y-96559714D01*
X173679571Y-96559714D01*
X173584333Y-96607333D01*
X172679571Y-97226380D02*
X172679571Y-96702571D01*
X172727190Y-96607333D01*
X172822428Y-96559714D01*
X173012904Y-96559714D01*
X173108142Y-96607333D01*
X172679571Y-97178761D02*
X172774809Y-97226380D01*
X173012904Y-97226380D01*
X173108142Y-97178761D01*
X173155761Y-97083523D01*
X173155761Y-96988285D01*
X173108142Y-96893047D01*
X173012904Y-96845428D01*
X172774809Y-96845428D01*
X172679571Y-96797809D01*
X172203380Y-97226380D02*
X172203380Y-96559714D01*
X172203380Y-96750190D02*
X172155761Y-96654952D01*
X172108142Y-96607333D01*
X172012904Y-96559714D01*
X171917666Y-96559714D01*
X171631952Y-97178761D02*
X171536714Y-97226380D01*
X171346238Y-97226380D01*
X171251000Y-97178761D01*
X171203380Y-97083523D01*
X171203380Y-97035904D01*
X171251000Y-96940666D01*
X171346238Y-96893047D01*
X171489095Y-96893047D01*
X171584333Y-96845428D01*
X171631952Y-96750190D01*
X171631952Y-96702571D01*
X171584333Y-96607333D01*
X171489095Y-96559714D01*
X171346238Y-96559714D01*
X171251000Y-96607333D01*
X170774809Y-97131142D02*
X170727190Y-97178761D01*
X170774809Y-97226380D01*
X170822428Y-97178761D01*
X170774809Y-97131142D01*
X170774809Y-97226380D01*
X169870047Y-97178761D02*
X169965285Y-97226380D01*
X170155761Y-97226380D01*
X170251000Y-97178761D01*
X170298619Y-97131142D01*
X170346238Y-97035904D01*
X170346238Y-96750190D01*
X170298619Y-96654952D01*
X170251000Y-96607333D01*
X170155761Y-96559714D01*
X169965285Y-96559714D01*
X169870047Y-96607333D01*
X169298619Y-97226380D02*
X169393857Y-97178761D01*
X169441476Y-97131142D01*
X169489095Y-97035904D01*
X169489095Y-96750190D01*
X169441476Y-96654952D01*
X169393857Y-96607333D01*
X169298619Y-96559714D01*
X169155761Y-96559714D01*
X169060523Y-96607333D01*
X169012904Y-96654952D01*
X168965285Y-96750190D01*
X168965285Y-97035904D01*
X169012904Y-97131142D01*
X169060523Y-97178761D01*
X169155761Y-97226380D01*
X169298619Y-97226380D01*
X168536714Y-97226380D02*
X168536714Y-96559714D01*
X168536714Y-96654952D02*
X168489095Y-96607333D01*
X168393857Y-96559714D01*
X168251000Y-96559714D01*
X168155761Y-96607333D01*
X168108142Y-96702571D01*
X168108142Y-97226380D01*
X168108142Y-96702571D02*
X168060523Y-96607333D01*
X167965285Y-96559714D01*
X167822428Y-96559714D01*
X167727190Y-96607333D01*
X167679571Y-96702571D01*
X167679571Y-97226380D01*
X166489095Y-96178761D02*
X167346238Y-97464476D01*
X166012904Y-97131142D02*
X165965285Y-97178761D01*
X166012904Y-97226380D01*
X166060523Y-97178761D01*
X166012904Y-97131142D01*
X166012904Y-97226380D01*
X166203380Y-96274000D02*
X166108142Y-96226380D01*
X165870047Y-96226380D01*
X165774809Y-96274000D01*
X165727190Y-96369238D01*
X165727190Y-96464476D01*
X165774809Y-96559714D01*
X165822428Y-96607333D01*
X165917666Y-96654952D01*
X165965285Y-96702571D01*
X166012904Y-96797809D01*
X166012904Y-96845428D01*
X165346238Y-97178761D02*
X165251000Y-97226380D01*
X165060523Y-97226380D01*
X164965285Y-97178761D01*
X164917666Y-97083523D01*
X164917666Y-97035904D01*
X164965285Y-96940666D01*
X165060523Y-96893047D01*
X165203380Y-96893047D01*
X165298619Y-96845428D01*
X165346238Y-96750190D01*
X165346238Y-96702571D01*
X165298619Y-96607333D01*
X165203380Y-96559714D01*
X165060523Y-96559714D01*
X164965285Y-96607333D01*
X164489095Y-97226380D02*
X164489095Y-96226380D01*
X164393857Y-96845428D02*
X164108142Y-97226380D01*
X164108142Y-96559714D02*
X164489095Y-96940666D01*
X163251000Y-96559714D02*
X163251000Y-97226380D01*
X163679571Y-96559714D02*
X163679571Y-97083523D01*
X163631952Y-97178761D01*
X163536714Y-97226380D01*
X163393857Y-97226380D01*
X163298619Y-97178761D01*
X163251000Y-97131142D01*
X162774809Y-96702571D02*
X162012904Y-96702571D01*
X162012904Y-96988285D02*
X162774809Y-96988285D01*
X161108142Y-96559714D02*
X161108142Y-97226380D01*
X161346238Y-96178761D02*
X161584333Y-96893047D01*
X160965285Y-96893047D01*
X160584333Y-97226380D02*
X160584333Y-96559714D01*
X160584333Y-96654952D02*
X160536714Y-96607333D01*
X160441476Y-96559714D01*
X160298619Y-96559714D01*
X160203380Y-96607333D01*
X160155761Y-96702571D01*
X160155761Y-97226380D01*
X160155761Y-96702571D02*
X160108142Y-96607333D01*
X160012904Y-96559714D01*
X159870047Y-96559714D01*
X159774809Y-96607333D01*
X159727190Y-96702571D01*
X159727190Y-97226380D01*
X159251000Y-97226380D02*
X159251000Y-96226380D01*
X159251000Y-96607333D02*
X159155761Y-96559714D01*
X158965285Y-96559714D01*
X158870047Y-96607333D01*
X158822428Y-96654952D01*
X158774809Y-96750190D01*
X158774809Y-97035904D01*
X158822428Y-97131142D01*
X158870047Y-97178761D01*
X158965285Y-97226380D01*
X159155761Y-97226380D01*
X159251000Y-97178761D01*
X158489095Y-96559714D02*
X158108142Y-96559714D01*
X158346238Y-97226380D02*
X158346238Y-96369238D01*
X158298619Y-96274000D01*
X158203380Y-96226380D01*
X158108142Y-96226380D01*
X157774809Y-96559714D02*
X157774809Y-97559714D01*
X157774809Y-96607333D02*
X157679571Y-96559714D01*
X157489095Y-96559714D01*
X157393857Y-96607333D01*
X157346238Y-96654952D01*
X157298619Y-96750190D01*
X157298619Y-97035904D01*
X157346238Y-97131142D01*
X157393857Y-97178761D01*
X157489095Y-97226380D01*
X157679571Y-97226380D01*
X157774809Y-97178761D01*
X156870047Y-97226380D02*
X156870047Y-96559714D01*
X156870047Y-96654952D02*
X156822428Y-96607333D01*
X156727190Y-96559714D01*
X156584333Y-96559714D01*
X156489095Y-96607333D01*
X156441476Y-96702571D01*
X156441476Y-97226380D01*
X156441476Y-96702571D02*
X156393857Y-96607333D01*
X156298619Y-96559714D01*
X156155761Y-96559714D01*
X156060523Y-96607333D01*
X156012904Y-96702571D01*
X156012904Y-97226380D01*
X155584333Y-97178761D02*
X155489095Y-97226380D01*
X155298619Y-97226380D01*
X155203380Y-97178761D01*
X155155761Y-97083523D01*
X155155761Y-97035904D01*
X155203380Y-96940666D01*
X155298619Y-96893047D01*
X155441476Y-96893047D01*
X155536714Y-96845428D01*
X155584333Y-96750190D01*
X155584333Y-96702571D01*
X155536714Y-96607333D01*
X155441476Y-96559714D01*
X155298619Y-96559714D01*
X155203380Y-96607333D01*
X154727190Y-97226380D02*
X154727190Y-96559714D01*
X154727190Y-96226380D02*
X154774809Y-96274000D01*
X154727190Y-96321619D01*
X154679571Y-96274000D01*
X154727190Y-96226380D01*
X154727190Y-96321619D01*
X154251000Y-97226380D02*
X154251000Y-96559714D01*
X154251000Y-96654952D02*
X154203380Y-96607333D01*
X154108142Y-96559714D01*
X153965285Y-96559714D01*
X153870047Y-96607333D01*
X153822428Y-96702571D01*
X153822428Y-97226380D01*
X153822428Y-96702571D02*
X153774809Y-96607333D01*
X153679571Y-96559714D01*
X153536714Y-96559714D01*
X153441476Y-96607333D01*
X153393857Y-96702571D01*
X153393857Y-97226380D01*
X152917666Y-97226380D02*
X152917666Y-96559714D01*
X152917666Y-96654952D02*
X152870047Y-96607333D01*
X152774809Y-96559714D01*
X152631952Y-96559714D01*
X152536714Y-96607333D01*
X152489095Y-96702571D01*
X152489095Y-97226380D01*
X152489095Y-96702571D02*
X152441476Y-96607333D01*
X152346238Y-96559714D01*
X152203380Y-96559714D01*
X152108142Y-96607333D01*
X152060523Y-96702571D01*
X152060523Y-97226380D01*
X151441476Y-97131142D02*
X151393857Y-97178761D01*
X151441476Y-97226380D01*
X151489095Y-97178761D01*
X151441476Y-97131142D01*
X151441476Y-97226380D01*
X151631952Y-96274000D02*
X151536714Y-96226380D01*
X151298619Y-96226380D01*
X151203380Y-96274000D01*
X151155761Y-96369238D01*
X151155761Y-96464476D01*
X151203380Y-96559714D01*
X151251000Y-96607333D01*
X151346238Y-96654952D01*
X151393857Y-96702571D01*
X151441476Y-96797809D01*
X151441476Y-96845428D01*
X150774809Y-97178761D02*
X150679571Y-97226380D01*
X150489095Y-97226380D01*
X150393857Y-97178761D01*
X150346238Y-97083523D01*
X150346238Y-97035904D01*
X150393857Y-96940666D01*
X150489095Y-96893047D01*
X150631952Y-96893047D01*
X150727190Y-96845428D01*
X150774809Y-96750190D01*
X150774809Y-96702571D01*
X150727190Y-96607333D01*
X150631952Y-96559714D01*
X150489095Y-96559714D01*
X150393857Y-96607333D01*
X149917666Y-96559714D02*
X149917666Y-97226380D01*
X149917666Y-96654952D02*
X149870047Y-96607333D01*
X149774809Y-96559714D01*
X149631952Y-96559714D01*
X149536714Y-96607333D01*
X149489095Y-96702571D01*
X149489095Y-97226380D01*
X149012904Y-96702571D02*
X148251000Y-96702571D01*
X148251000Y-96988285D02*
X149012904Y-96988285D01*
M02*
