%TF.GenerationSoftware,KiCad,Pcbnew,(5.1.8)-1*%
%TF.CreationDate,2021-01-03T01:35:45+11:00*%
%TF.ProjectId,30pinsimm,33307069-6e73-4696-9d6d-2e6b69636164,rev?*%
%TF.SameCoordinates,Original*%
%TF.FileFunction,Legend,Top*%
%TF.FilePolarity,Positive*%
%FSLAX46Y46*%
G04 Gerber Fmt 4.6, Leading zero omitted, Abs format (unit mm)*
G04 Created by KiCad (PCBNEW (5.1.8)-1) date 2021-01-03 01:35:45*
%MOMM*%
%LPD*%
G01*
G04 APERTURE LIST*
%ADD10C,0.150000*%
%ADD11C,0.120000*%
G04 APERTURE END LIST*
D10*
X102745166Y-104814714D02*
X102745166Y-105481380D01*
X102507071Y-104433761D02*
X102268976Y-105148047D01*
X102888023Y-105148047D01*
X103268976Y-105481380D02*
X103268976Y-104481380D01*
X103602309Y-105195666D01*
X103935642Y-104481380D01*
X103935642Y-105481380D01*
X104411833Y-105481380D02*
X104411833Y-104481380D01*
X104411833Y-104862333D02*
X104507071Y-104814714D01*
X104697547Y-104814714D01*
X104792785Y-104862333D01*
X104840404Y-104909952D01*
X104888023Y-105005190D01*
X104888023Y-105290904D01*
X104840404Y-105386142D01*
X104792785Y-105433761D01*
X104697547Y-105481380D01*
X104507071Y-105481380D01*
X104411833Y-105433761D01*
X101062452Y-96210952D02*
X100967214Y-96163333D01*
X100919595Y-96115714D01*
X100871976Y-96020476D01*
X100871976Y-95972857D01*
X100919595Y-95877619D01*
X100967214Y-95830000D01*
X101062452Y-95782380D01*
X101252928Y-95782380D01*
X101348166Y-95830000D01*
X101395785Y-95877619D01*
X101443404Y-95972857D01*
X101443404Y-96020476D01*
X101395785Y-96115714D01*
X101348166Y-96163333D01*
X101252928Y-96210952D01*
X101062452Y-96210952D01*
X100967214Y-96258571D01*
X100919595Y-96306190D01*
X100871976Y-96401428D01*
X100871976Y-96591904D01*
X100919595Y-96687142D01*
X100967214Y-96734761D01*
X101062452Y-96782380D01*
X101252928Y-96782380D01*
X101348166Y-96734761D01*
X101395785Y-96687142D01*
X101443404Y-96591904D01*
X101443404Y-96401428D01*
X101395785Y-96306190D01*
X101348166Y-96258571D01*
X101252928Y-96210952D01*
X102586261Y-95734761D02*
X101729119Y-97020476D01*
X102967214Y-96782380D02*
X103157690Y-96782380D01*
X103252928Y-96734761D01*
X103300547Y-96687142D01*
X103395785Y-96544285D01*
X103443404Y-96353809D01*
X103443404Y-95972857D01*
X103395785Y-95877619D01*
X103348166Y-95830000D01*
X103252928Y-95782380D01*
X103062452Y-95782380D01*
X102967214Y-95830000D01*
X102919595Y-95877619D01*
X102871976Y-95972857D01*
X102871976Y-96210952D01*
X102919595Y-96306190D01*
X102967214Y-96353809D01*
X103062452Y-96401428D01*
X103252928Y-96401428D01*
X103348166Y-96353809D01*
X103395785Y-96306190D01*
X103443404Y-96210952D01*
X104967214Y-96258571D02*
X105110071Y-96306190D01*
X105157690Y-96353809D01*
X105205309Y-96449047D01*
X105205309Y-96591904D01*
X105157690Y-96687142D01*
X105110071Y-96734761D01*
X105014833Y-96782380D01*
X104633880Y-96782380D01*
X104633880Y-95782380D01*
X104967214Y-95782380D01*
X105062452Y-95830000D01*
X105110071Y-95877619D01*
X105157690Y-95972857D01*
X105157690Y-96068095D01*
X105110071Y-96163333D01*
X105062452Y-96210952D01*
X104967214Y-96258571D01*
X104633880Y-96258571D01*
X105633880Y-96782380D02*
X105633880Y-96115714D01*
X105633880Y-95782380D02*
X105586261Y-95830000D01*
X105633880Y-95877619D01*
X105681500Y-95830000D01*
X105633880Y-95782380D01*
X105633880Y-95877619D01*
X105967214Y-96115714D02*
X106348166Y-96115714D01*
X106110071Y-95782380D02*
X106110071Y-96639523D01*
X106157690Y-96734761D01*
X106252928Y-96782380D01*
X106348166Y-96782380D01*
X101252928Y-97908571D02*
X100919595Y-97908571D01*
X100919595Y-98432380D02*
X100919595Y-97432380D01*
X101395785Y-97432380D01*
X101776738Y-98432380D02*
X101776738Y-97432380D01*
X102157690Y-97432380D01*
X102252928Y-97480000D01*
X102300547Y-97527619D01*
X102348166Y-97622857D01*
X102348166Y-97765714D01*
X102300547Y-97860952D01*
X102252928Y-97908571D01*
X102157690Y-97956190D01*
X101776738Y-97956190D01*
X102776738Y-98432380D02*
X102776738Y-97432380D01*
X103110071Y-98146666D01*
X103443404Y-97432380D01*
X103443404Y-98432380D01*
X104681500Y-98432380D02*
X104681500Y-97432380D01*
X104919595Y-97432380D01*
X105062452Y-97480000D01*
X105157690Y-97575238D01*
X105205309Y-97670476D01*
X105252928Y-97860952D01*
X105252928Y-98003809D01*
X105205309Y-98194285D01*
X105157690Y-98289523D01*
X105062452Y-98384761D01*
X104919595Y-98432380D01*
X104681500Y-98432380D01*
X106252928Y-98432380D02*
X105919595Y-97956190D01*
X105681500Y-98432380D02*
X105681500Y-97432380D01*
X106062452Y-97432380D01*
X106157690Y-97480000D01*
X106205309Y-97527619D01*
X106252928Y-97622857D01*
X106252928Y-97765714D01*
X106205309Y-97860952D01*
X106157690Y-97908571D01*
X106062452Y-97956190D01*
X105681500Y-97956190D01*
X106633880Y-98146666D02*
X107110071Y-98146666D01*
X106538642Y-98432380D02*
X106871976Y-97432380D01*
X107205309Y-98432380D01*
X107538642Y-98432380D02*
X107538642Y-97432380D01*
X107871976Y-98146666D01*
X108205309Y-97432380D01*
X108205309Y-98432380D01*
D11*
%TO.C,U2*%
X135636000Y-99695000D02*
G75*
G02*
X135636000Y-101727000I0J-1016000D01*
G01*
D10*
X152654000Y-103124000D02*
X135636000Y-103124000D01*
X152654000Y-98298000D02*
X152654000Y-103124000D01*
X135636000Y-98298000D02*
X152654000Y-98298000D01*
X135636000Y-103124000D02*
X135636000Y-101727000D01*
X135636000Y-99695000D02*
X135636000Y-98298000D01*
D11*
%TO.C,U1*%
X110871000Y-99695000D02*
G75*
G02*
X110871000Y-101727000I0J-1016000D01*
G01*
D10*
X127889000Y-103124000D02*
X110871000Y-103124000D01*
X127889000Y-98298000D02*
X127889000Y-103124000D01*
X110871000Y-98298000D02*
X127889000Y-98298000D01*
X110871000Y-103124000D02*
X110871000Y-101727000D01*
X110871000Y-99695000D02*
X110871000Y-98298000D01*
%TO.C,U3*%
X177165000Y-103124000D02*
X160147000Y-103124000D01*
X177165000Y-98298000D02*
X177165000Y-103124000D01*
X160147000Y-98298000D02*
X177165000Y-98298000D01*
X160147000Y-103124000D02*
X160147000Y-101727000D01*
X160147000Y-99695000D02*
X160147000Y-98298000D01*
D11*
X160147000Y-99695000D02*
G75*
G02*
X160147000Y-101727000I0J-1016000D01*
G01*
%TO.C,C3*%
X178855000Y-100211000D02*
X178855000Y-101211000D01*
X180555000Y-101211000D02*
X180555000Y-100211000D01*
%TO.C,C2*%
X133262000Y-100465000D02*
X133262000Y-101465000D01*
X134962000Y-101465000D02*
X134962000Y-100465000D01*
%TO.C,C1*%
X108624000Y-100211000D02*
X108624000Y-101211000D01*
X110324000Y-101211000D02*
X110324000Y-100211000D01*
%TO.C,U2*%
D10*
X143383095Y-100163380D02*
X143383095Y-100972904D01*
X143430714Y-101068142D01*
X143478333Y-101115761D01*
X143573571Y-101163380D01*
X143764047Y-101163380D01*
X143859285Y-101115761D01*
X143906904Y-101068142D01*
X143954523Y-100972904D01*
X143954523Y-100163380D01*
X144383095Y-100258619D02*
X144430714Y-100211000D01*
X144525952Y-100163380D01*
X144764047Y-100163380D01*
X144859285Y-100211000D01*
X144906904Y-100258619D01*
X144954523Y-100353857D01*
X144954523Y-100449095D01*
X144906904Y-100591952D01*
X144335476Y-101163380D01*
X144954523Y-101163380D01*
%TO.C,U1*%
X118618095Y-100163380D02*
X118618095Y-100972904D01*
X118665714Y-101068142D01*
X118713333Y-101115761D01*
X118808571Y-101163380D01*
X118999047Y-101163380D01*
X119094285Y-101115761D01*
X119141904Y-101068142D01*
X119189523Y-100972904D01*
X119189523Y-100163380D01*
X120189523Y-101163380D02*
X119618095Y-101163380D01*
X119903809Y-101163380D02*
X119903809Y-100163380D01*
X119808571Y-100306238D01*
X119713333Y-100401476D01*
X119618095Y-100449095D01*
%TO.C,U3*%
X167894095Y-100163380D02*
X167894095Y-100972904D01*
X167941714Y-101068142D01*
X167989333Y-101115761D01*
X168084571Y-101163380D01*
X168275047Y-101163380D01*
X168370285Y-101115761D01*
X168417904Y-101068142D01*
X168465523Y-100972904D01*
X168465523Y-100163380D01*
X168846476Y-100163380D02*
X169465523Y-100163380D01*
X169132190Y-100544333D01*
X169275047Y-100544333D01*
X169370285Y-100591952D01*
X169417904Y-100639571D01*
X169465523Y-100734809D01*
X169465523Y-100972904D01*
X169417904Y-101068142D01*
X169370285Y-101115761D01*
X169275047Y-101163380D01*
X168989333Y-101163380D01*
X168894095Y-101115761D01*
X168846476Y-101068142D01*
%TO.C,SIMM1*%
X183023142Y-97559761D02*
X183166000Y-97607380D01*
X183404095Y-97607380D01*
X183499333Y-97559761D01*
X183546952Y-97512142D01*
X183594571Y-97416904D01*
X183594571Y-97321666D01*
X183546952Y-97226428D01*
X183499333Y-97178809D01*
X183404095Y-97131190D01*
X183213619Y-97083571D01*
X183118380Y-97035952D01*
X183070761Y-96988333D01*
X183023142Y-96893095D01*
X183023142Y-96797857D01*
X183070761Y-96702619D01*
X183118380Y-96655000D01*
X183213619Y-96607380D01*
X183451714Y-96607380D01*
X183594571Y-96655000D01*
X184023142Y-97607380D02*
X184023142Y-96607380D01*
X184499333Y-97607380D02*
X184499333Y-96607380D01*
X184832666Y-97321666D01*
X185166000Y-96607380D01*
X185166000Y-97607380D01*
X185642190Y-97607380D02*
X185642190Y-96607380D01*
X185975523Y-97321666D01*
X186308857Y-96607380D01*
X186308857Y-97607380D01*
X187308857Y-97607380D02*
X186737428Y-97607380D01*
X187023142Y-97607380D02*
X187023142Y-96607380D01*
X186927904Y-96750238D01*
X186832666Y-96845476D01*
X186737428Y-96893095D01*
X180165476Y-105751380D02*
X180784523Y-105751380D01*
X180451190Y-106132333D01*
X180594047Y-106132333D01*
X180689285Y-106179952D01*
X180736904Y-106227571D01*
X180784523Y-106322809D01*
X180784523Y-106560904D01*
X180736904Y-106656142D01*
X180689285Y-106703761D01*
X180594047Y-106751380D01*
X180308333Y-106751380D01*
X180213095Y-106703761D01*
X180165476Y-106656142D01*
X181403571Y-105751380D02*
X181498809Y-105751380D01*
X181594047Y-105799000D01*
X181641666Y-105846619D01*
X181689285Y-105941857D01*
X181736904Y-106132333D01*
X181736904Y-106370428D01*
X181689285Y-106560904D01*
X181641666Y-106656142D01*
X181594047Y-106703761D01*
X181498809Y-106751380D01*
X181403571Y-106751380D01*
X181308333Y-106703761D01*
X181260714Y-106656142D01*
X181213095Y-106560904D01*
X181165476Y-106370428D01*
X181165476Y-106132333D01*
X181213095Y-105941857D01*
X181260714Y-105846619D01*
X181308333Y-105799000D01*
X181403571Y-105751380D01*
X107600714Y-106878380D02*
X107029285Y-106878380D01*
X107315000Y-106878380D02*
X107315000Y-105878380D01*
X107219761Y-106021238D01*
X107124523Y-106116476D01*
X107029285Y-106164095D01*
%TO.C,C3*%
X180062142Y-97956666D02*
X180109761Y-98004285D01*
X180157380Y-98147142D01*
X180157380Y-98242380D01*
X180109761Y-98385238D01*
X180014523Y-98480476D01*
X179919285Y-98528095D01*
X179728809Y-98575714D01*
X179585952Y-98575714D01*
X179395476Y-98528095D01*
X179300238Y-98480476D01*
X179205000Y-98385238D01*
X179157380Y-98242380D01*
X179157380Y-98147142D01*
X179205000Y-98004285D01*
X179252619Y-97956666D01*
X179157380Y-97623333D02*
X179157380Y-97004285D01*
X179538333Y-97337619D01*
X179538333Y-97194761D01*
X179585952Y-97099523D01*
X179633571Y-97051904D01*
X179728809Y-97004285D01*
X179966904Y-97004285D01*
X180062142Y-97051904D01*
X180109761Y-97099523D01*
X180157380Y-97194761D01*
X180157380Y-97480476D01*
X180109761Y-97575714D01*
X180062142Y-97623333D01*
%TO.C,C2*%
X134469142Y-98337666D02*
X134516761Y-98385285D01*
X134564380Y-98528142D01*
X134564380Y-98623380D01*
X134516761Y-98766238D01*
X134421523Y-98861476D01*
X134326285Y-98909095D01*
X134135809Y-98956714D01*
X133992952Y-98956714D01*
X133802476Y-98909095D01*
X133707238Y-98861476D01*
X133612000Y-98766238D01*
X133564380Y-98623380D01*
X133564380Y-98528142D01*
X133612000Y-98385285D01*
X133659619Y-98337666D01*
X133659619Y-97956714D02*
X133612000Y-97909095D01*
X133564380Y-97813857D01*
X133564380Y-97575761D01*
X133612000Y-97480523D01*
X133659619Y-97432904D01*
X133754857Y-97385285D01*
X133850095Y-97385285D01*
X133992952Y-97432904D01*
X134564380Y-98004333D01*
X134564380Y-97385285D01*
%TO.C,C1*%
X109958142Y-97956666D02*
X110005761Y-98004285D01*
X110053380Y-98147142D01*
X110053380Y-98242380D01*
X110005761Y-98385238D01*
X109910523Y-98480476D01*
X109815285Y-98528095D01*
X109624809Y-98575714D01*
X109481952Y-98575714D01*
X109291476Y-98528095D01*
X109196238Y-98480476D01*
X109101000Y-98385238D01*
X109053380Y-98242380D01*
X109053380Y-98147142D01*
X109101000Y-98004285D01*
X109148619Y-97956666D01*
X110053380Y-97004285D02*
X110053380Y-97575714D01*
X110053380Y-97290000D02*
X109053380Y-97290000D01*
X109196238Y-97385238D01*
X109291476Y-97480476D01*
X109339095Y-97575714D01*
%TD*%
M02*
