%TF.GenerationSoftware,KiCad,Pcbnew,(5.1.9)-1*%
%TF.CreationDate,2021-01-10T22:17:43+11:00*%
%TF.ProjectId,30pinsimm,33307069-6e73-4696-9d6d-2e6b69636164,rev?*%
%TF.SameCoordinates,Original*%
%TF.FileFunction,Copper,L2,Inr*%
%TF.FilePolarity,Positive*%
%FSLAX46Y46*%
G04 Gerber Fmt 4.6, Leading zero omitted, Abs format (unit mm)*
G04 Created by KiCad (PCBNEW (5.1.9)-1) date 2021-01-10 22:17:43*
%MOMM*%
%LPD*%
G01*
G04 APERTURE LIST*
%TA.AperFunction,ComponentPad*%
%ADD10R,1.780000X3.500000*%
%TD*%
%TA.AperFunction,ViaPad*%
%ADD11C,0.800000*%
%TD*%
%TA.AperFunction,Conductor*%
%ADD12C,0.254000*%
%TD*%
%TA.AperFunction,Conductor*%
%ADD13C,0.100000*%
%TD*%
G04 APERTURE END LIST*
D10*
%TO.N,/WE*%
%TO.C,SIMM30*%
X158115000Y-109477000D03*
%TO.N,/DQ5*%
X155575000Y-109477000D03*
%TO.N,/DP*%
X178435000Y-109477000D03*
%TO.N,/CASP*%
X175895000Y-109477000D03*
%TO.N,/RAS*%
X173355000Y-109477000D03*
%TO.N,/A10*%
X153035000Y-109477000D03*
%TO.N,+5V*%
X180975000Y-109477000D03*
%TO.N,/QP*%
X170815000Y-109477000D03*
%TO.N,/A8*%
X147955000Y-109477000D03*
%TO.N,/DQ7*%
X168275000Y-109477000D03*
%TO.N,GND*%
X160655000Y-109477000D03*
%TO.N,/A9*%
X150495000Y-109477000D03*
%TO.N,/A11*%
X165735000Y-109477000D03*
%TO.N,/DQ6*%
X163195000Y-109477000D03*
%TO.N,/A5*%
X135255000Y-109477000D03*
%TO.N,/A4*%
X132715000Y-109477000D03*
%TO.N,/DQ2*%
X130175000Y-109477000D03*
%TO.N,/DQ4*%
X145415000Y-109477000D03*
%TO.N,/DQ3*%
X137795000Y-109477000D03*
%TO.N,GND*%
X127635000Y-109477000D03*
%TO.N,/A7*%
X142875000Y-109477000D03*
%TO.N,/A6*%
X140335000Y-109477000D03*
%TO.N,/A2*%
X122555000Y-109477000D03*
%TO.N,/A3*%
X125095000Y-109477000D03*
%TO.N,/DQ1*%
X120015000Y-109477000D03*
%TO.N,/A1*%
X117475000Y-109477000D03*
%TO.N,/A0*%
X114935000Y-109477000D03*
%TO.N,/DQ0*%
X112395000Y-109477000D03*
%TO.N,/CAS*%
X109855000Y-109477000D03*
%TO.N,+5V*%
X107315000Y-109477000D03*
%TD*%
D11*
%TO.N,+5V*%
X177927000Y-101727000D03*
X135818400Y-105836100D03*
X152766000Y-104169700D03*
X111760000Y-102235000D03*
X125761400Y-102665000D03*
X133617400Y-103284900D03*
%TO.N,/CASP*%
X167546000Y-95829700D03*
%TO.N,/RAS*%
X170194300Y-105258800D03*
%TO.N,/A10*%
X145139800Y-102666500D03*
X121920000Y-106934000D03*
X163428000Y-105889600D03*
%TO.N,/QP*%
X168585600Y-96076900D03*
%TO.N,/A8*%
X155667600Y-100420400D03*
X158713200Y-97797500D03*
X170307000Y-98787200D03*
X120523000Y-98766500D03*
X139896300Y-98779200D03*
X145288000Y-99454410D03*
%TO.N,/DQ7*%
X156094696Y-102425884D03*
%TO.N,GND*%
X136525000Y-98870700D03*
X161036000Y-95446200D03*
X151638000Y-95377000D03*
X141478000Y-95406200D03*
X111760000Y-99060000D03*
X177927000Y-99695000D03*
X131987700Y-101946600D03*
X127927735Y-99478100D03*
%TO.N,/A9*%
X144018000Y-97649500D03*
X117930000Y-98756700D03*
X153893700Y-96691200D03*
X158371300Y-100148800D03*
%TO.N,/DQ6*%
X154620600Y-102062000D03*
%TO.N,/A5*%
X132713000Y-102636100D03*
%TO.N,/A4*%
X170319400Y-100813400D03*
X130537000Y-101397200D03*
X154819555Y-97592479D03*
X125577701Y-99163018D03*
%TO.N,/DQ2*%
X129703800Y-101978800D03*
%TO.N,/DQ3*%
X129449990Y-105918000D03*
X129441009Y-103060813D03*
%TO.N,/A7*%
X144018000Y-96520000D03*
X170307000Y-99822000D03*
X118393100Y-95551200D03*
X151208100Y-99943200D03*
%TO.N,/A6*%
X172151100Y-99772400D03*
X114952800Y-101014100D03*
X131568700Y-103403300D03*
X144018000Y-95377000D03*
X123605800Y-95551900D03*
X123063000Y-98724390D03*
%TO.N,/A2*%
X163279900Y-101543800D03*
%TO.N,/A3*%
X161165400Y-100834100D03*
%TO.N,/A1*%
X114348600Y-106959700D03*
X172109700Y-102635500D03*
X167269300Y-100060700D03*
X122499300Y-102663000D03*
X146241431Y-102066810D03*
%TO.N,/A0*%
X143905300Y-104491500D03*
X121920000Y-105888600D03*
%TO.N,/CAS*%
X135255300Y-98127200D03*
X116524700Y-99178600D03*
%TD*%
D12*
%TO.N,+5V*%
X117358100Y-95449261D02*
X117358100Y-95653139D01*
X117397874Y-95853098D01*
X117475895Y-96041456D01*
X117589163Y-96210974D01*
X117733326Y-96355137D01*
X117902844Y-96468405D01*
X118091202Y-96546426D01*
X118291161Y-96586200D01*
X118495039Y-96586200D01*
X118694998Y-96546426D01*
X118883356Y-96468405D01*
X119052874Y-96355137D01*
X119197037Y-96210974D01*
X119310305Y-96041456D01*
X119388326Y-95853098D01*
X119428100Y-95653139D01*
X119428100Y-95449261D01*
X119413647Y-95376600D01*
X122585392Y-95376600D01*
X122570800Y-95449961D01*
X122570800Y-95653839D01*
X122610574Y-95853798D01*
X122688595Y-96042156D01*
X122801863Y-96211674D01*
X122946026Y-96355837D01*
X123115544Y-96469105D01*
X123303902Y-96547126D01*
X123503861Y-96586900D01*
X123707739Y-96586900D01*
X123907698Y-96547126D01*
X124096056Y-96469105D01*
X124265574Y-96355837D01*
X124409737Y-96211674D01*
X124523005Y-96042156D01*
X124601026Y-95853798D01*
X124640800Y-95653839D01*
X124640800Y-95449961D01*
X124626208Y-95376600D01*
X140443000Y-95376600D01*
X140443000Y-95508139D01*
X140482774Y-95708098D01*
X140560795Y-95896456D01*
X140674063Y-96065974D01*
X140818226Y-96210137D01*
X140987744Y-96323405D01*
X141176102Y-96401426D01*
X141376061Y-96441200D01*
X141579939Y-96441200D01*
X141779898Y-96401426D01*
X141968256Y-96323405D01*
X142137774Y-96210137D01*
X142281937Y-96065974D01*
X142395205Y-95896456D01*
X142473226Y-95708098D01*
X142513000Y-95508139D01*
X142513000Y-95376600D01*
X142983000Y-95376600D01*
X142983000Y-95478939D01*
X143022774Y-95678898D01*
X143100795Y-95867256D01*
X143155080Y-95948500D01*
X143100795Y-96029744D01*
X143022774Y-96218102D01*
X142983000Y-96418061D01*
X142983000Y-96621939D01*
X143022774Y-96821898D01*
X143100795Y-97010256D01*
X143150570Y-97084750D01*
X143100795Y-97159244D01*
X143022774Y-97347602D01*
X142983000Y-97547561D01*
X142983000Y-97751439D01*
X143022774Y-97951398D01*
X143100795Y-98139756D01*
X143214063Y-98309274D01*
X143358226Y-98453437D01*
X143527744Y-98566705D01*
X143716102Y-98644726D01*
X143916061Y-98684500D01*
X144119939Y-98684500D01*
X144319898Y-98644726D01*
X144508256Y-98566705D01*
X144677774Y-98453437D01*
X144821937Y-98309274D01*
X144935205Y-98139756D01*
X145013226Y-97951398D01*
X145053000Y-97751439D01*
X145053000Y-97547561D01*
X145013226Y-97347602D01*
X144935205Y-97159244D01*
X144885430Y-97084750D01*
X144935205Y-97010256D01*
X145013226Y-96821898D01*
X145053000Y-96621939D01*
X145053000Y-96589261D01*
X152858700Y-96589261D01*
X152858700Y-96793139D01*
X152898474Y-96993098D01*
X152976495Y-97181456D01*
X153089763Y-97350974D01*
X153233926Y-97495137D01*
X153403444Y-97608405D01*
X153591802Y-97686426D01*
X153790840Y-97726017D01*
X153824329Y-97894377D01*
X153902350Y-98082735D01*
X154015618Y-98252253D01*
X154159781Y-98396416D01*
X154329299Y-98509684D01*
X154517657Y-98587705D01*
X154717616Y-98627479D01*
X154921494Y-98627479D01*
X155121453Y-98587705D01*
X155309811Y-98509684D01*
X155479329Y-98396416D01*
X155623492Y-98252253D01*
X155736760Y-98082735D01*
X155814781Y-97894377D01*
X155854327Y-97695561D01*
X157678200Y-97695561D01*
X157678200Y-97899439D01*
X157717974Y-98099398D01*
X157795995Y-98287756D01*
X157909263Y-98457274D01*
X158053426Y-98601437D01*
X158222944Y-98714705D01*
X158411302Y-98792726D01*
X158611261Y-98832500D01*
X158815139Y-98832500D01*
X159015098Y-98792726D01*
X159203456Y-98714705D01*
X159247522Y-98685261D01*
X169272000Y-98685261D01*
X169272000Y-98889139D01*
X169311774Y-99089098D01*
X169389795Y-99277456D01*
X169407932Y-99304600D01*
X169389795Y-99331744D01*
X169311774Y-99520102D01*
X169272000Y-99720061D01*
X169272000Y-99923939D01*
X169311774Y-100123898D01*
X169389795Y-100312256D01*
X169400234Y-100327879D01*
X169324174Y-100511502D01*
X169284400Y-100711461D01*
X169284400Y-100915339D01*
X169324174Y-101115298D01*
X169402195Y-101303656D01*
X169515463Y-101473174D01*
X169659626Y-101617337D01*
X169829144Y-101730605D01*
X170017502Y-101808626D01*
X170217461Y-101848400D01*
X170421339Y-101848400D01*
X170621298Y-101808626D01*
X170809656Y-101730605D01*
X170979174Y-101617337D01*
X171123337Y-101473174D01*
X171236605Y-101303656D01*
X171314626Y-101115298D01*
X171354400Y-100915339D01*
X171354400Y-100711461D01*
X171314626Y-100511502D01*
X171236605Y-100323144D01*
X171226166Y-100307521D01*
X171240596Y-100272685D01*
X171347163Y-100432174D01*
X171491326Y-100576337D01*
X171660844Y-100689605D01*
X171849202Y-100767626D01*
X172049161Y-100807400D01*
X172253039Y-100807400D01*
X172452998Y-100767626D01*
X172641356Y-100689605D01*
X172810874Y-100576337D01*
X172955037Y-100432174D01*
X173068305Y-100262656D01*
X173146326Y-100074298D01*
X173186100Y-99874339D01*
X173186100Y-99670461D01*
X173170705Y-99593061D01*
X176892000Y-99593061D01*
X176892000Y-99796939D01*
X176931774Y-99996898D01*
X177009795Y-100185256D01*
X177123063Y-100354774D01*
X177267226Y-100498937D01*
X177436744Y-100612205D01*
X177625102Y-100690226D01*
X177825061Y-100730000D01*
X178028939Y-100730000D01*
X178228898Y-100690226D01*
X178417256Y-100612205D01*
X178586774Y-100498937D01*
X178730937Y-100354774D01*
X178844205Y-100185256D01*
X178922226Y-99996898D01*
X178962000Y-99796939D01*
X178962000Y-99593061D01*
X178922226Y-99393102D01*
X178844205Y-99204744D01*
X178730937Y-99035226D01*
X178586774Y-98891063D01*
X178417256Y-98777795D01*
X178228898Y-98699774D01*
X178028939Y-98660000D01*
X177825061Y-98660000D01*
X177625102Y-98699774D01*
X177436744Y-98777795D01*
X177267226Y-98891063D01*
X177123063Y-99035226D01*
X177009795Y-99204744D01*
X176931774Y-99393102D01*
X176892000Y-99593061D01*
X173170705Y-99593061D01*
X173146326Y-99470502D01*
X173068305Y-99282144D01*
X172955037Y-99112626D01*
X172810874Y-98968463D01*
X172641356Y-98855195D01*
X172452998Y-98777174D01*
X172253039Y-98737400D01*
X172049161Y-98737400D01*
X171849202Y-98777174D01*
X171660844Y-98855195D01*
X171491326Y-98968463D01*
X171347163Y-99112626D01*
X171233895Y-99282144D01*
X171217504Y-99321715D01*
X171206068Y-99304600D01*
X171224205Y-99277456D01*
X171302226Y-99089098D01*
X171342000Y-98889139D01*
X171342000Y-98685261D01*
X171302226Y-98485302D01*
X171224205Y-98296944D01*
X171110937Y-98127426D01*
X170966774Y-97983263D01*
X170797256Y-97869995D01*
X170608898Y-97791974D01*
X170408939Y-97752200D01*
X170205061Y-97752200D01*
X170005102Y-97791974D01*
X169816744Y-97869995D01*
X169647226Y-97983263D01*
X169503063Y-98127426D01*
X169389795Y-98296944D01*
X169311774Y-98485302D01*
X169272000Y-98685261D01*
X159247522Y-98685261D01*
X159372974Y-98601437D01*
X159517137Y-98457274D01*
X159630405Y-98287756D01*
X159708426Y-98099398D01*
X159748200Y-97899439D01*
X159748200Y-97695561D01*
X159708426Y-97495602D01*
X159630405Y-97307244D01*
X159517137Y-97137726D01*
X159372974Y-96993563D01*
X159203456Y-96880295D01*
X159015098Y-96802274D01*
X158815139Y-96762500D01*
X158611261Y-96762500D01*
X158411302Y-96802274D01*
X158222944Y-96880295D01*
X158053426Y-96993563D01*
X157909263Y-97137726D01*
X157795995Y-97307244D01*
X157717974Y-97495602D01*
X157678200Y-97695561D01*
X155854327Y-97695561D01*
X155854555Y-97694418D01*
X155854555Y-97490540D01*
X155814781Y-97290581D01*
X155736760Y-97102223D01*
X155623492Y-96932705D01*
X155479329Y-96788542D01*
X155309811Y-96675274D01*
X155121453Y-96597253D01*
X154922415Y-96557662D01*
X154888926Y-96389302D01*
X154810905Y-96200944D01*
X154697637Y-96031426D01*
X154553474Y-95887263D01*
X154383956Y-95773995D01*
X154195598Y-95695974D01*
X153995639Y-95656200D01*
X153791761Y-95656200D01*
X153591802Y-95695974D01*
X153403444Y-95773995D01*
X153233926Y-95887263D01*
X153089763Y-96031426D01*
X152976495Y-96200944D01*
X152898474Y-96389302D01*
X152858700Y-96589261D01*
X145053000Y-96589261D01*
X145053000Y-96418061D01*
X145013226Y-96218102D01*
X144935205Y-96029744D01*
X144880920Y-95948500D01*
X144935205Y-95867256D01*
X145013226Y-95678898D01*
X145053000Y-95478939D01*
X145053000Y-95376600D01*
X150603000Y-95376600D01*
X150603000Y-95478939D01*
X150642774Y-95678898D01*
X150720795Y-95867256D01*
X150834063Y-96036774D01*
X150978226Y-96180937D01*
X151147744Y-96294205D01*
X151336102Y-96372226D01*
X151536061Y-96412000D01*
X151739939Y-96412000D01*
X151939898Y-96372226D01*
X152128256Y-96294205D01*
X152297774Y-96180937D01*
X152441937Y-96036774D01*
X152555205Y-95867256D01*
X152633226Y-95678898D01*
X152673000Y-95478939D01*
X152673000Y-95376600D01*
X160001000Y-95376600D01*
X160001000Y-95548139D01*
X160040774Y-95748098D01*
X160118795Y-95936456D01*
X160232063Y-96105974D01*
X160376226Y-96250137D01*
X160545744Y-96363405D01*
X160734102Y-96441426D01*
X160934061Y-96481200D01*
X161137939Y-96481200D01*
X161337898Y-96441426D01*
X161526256Y-96363405D01*
X161695774Y-96250137D01*
X161839937Y-96105974D01*
X161953205Y-95936456D01*
X162031226Y-95748098D01*
X162071000Y-95548139D01*
X162071000Y-95376600D01*
X166613404Y-95376600D01*
X166550774Y-95527802D01*
X166511000Y-95727761D01*
X166511000Y-95931639D01*
X166550774Y-96131598D01*
X166628795Y-96319956D01*
X166742063Y-96489474D01*
X166886226Y-96633637D01*
X167055744Y-96746905D01*
X167244102Y-96824926D01*
X167444061Y-96864700D01*
X167647939Y-96864700D01*
X167847898Y-96824926D01*
X167863466Y-96818477D01*
X167925826Y-96880837D01*
X168095344Y-96994105D01*
X168283702Y-97072126D01*
X168483661Y-97111900D01*
X168687539Y-97111900D01*
X168887498Y-97072126D01*
X169075856Y-96994105D01*
X169245374Y-96880837D01*
X169389537Y-96736674D01*
X169502805Y-96567156D01*
X169580826Y-96378798D01*
X169620600Y-96178839D01*
X169620600Y-95974961D01*
X169580826Y-95775002D01*
X169502805Y-95586644D01*
X169389537Y-95417126D01*
X169349011Y-95376600D01*
X182118000Y-95376600D01*
X182118000Y-110642800D01*
X179963072Y-110642800D01*
X179963072Y-107727000D01*
X179950812Y-107602518D01*
X179914502Y-107482820D01*
X179855537Y-107372506D01*
X179776185Y-107275815D01*
X179679494Y-107196463D01*
X179569180Y-107137498D01*
X179449482Y-107101188D01*
X179325000Y-107088928D01*
X177545000Y-107088928D01*
X177420518Y-107101188D01*
X177300820Y-107137498D01*
X177190506Y-107196463D01*
X177165000Y-107217395D01*
X177139494Y-107196463D01*
X177029180Y-107137498D01*
X176909482Y-107101188D01*
X176785000Y-107088928D01*
X175005000Y-107088928D01*
X174880518Y-107101188D01*
X174760820Y-107137498D01*
X174650506Y-107196463D01*
X174625000Y-107217395D01*
X174599494Y-107196463D01*
X174489180Y-107137498D01*
X174369482Y-107101188D01*
X174245000Y-107088928D01*
X172465000Y-107088928D01*
X172340518Y-107101188D01*
X172220820Y-107137498D01*
X172110506Y-107196463D01*
X172085000Y-107217395D01*
X172059494Y-107196463D01*
X171949180Y-107137498D01*
X171829482Y-107101188D01*
X171705000Y-107088928D01*
X169925000Y-107088928D01*
X169800518Y-107101188D01*
X169680820Y-107137498D01*
X169570506Y-107196463D01*
X169545000Y-107217395D01*
X169519494Y-107196463D01*
X169409180Y-107137498D01*
X169289482Y-107101188D01*
X169165000Y-107088928D01*
X167385000Y-107088928D01*
X167260518Y-107101188D01*
X167140820Y-107137498D01*
X167030506Y-107196463D01*
X167005000Y-107217395D01*
X166979494Y-107196463D01*
X166869180Y-107137498D01*
X166749482Y-107101188D01*
X166625000Y-107088928D01*
X164845000Y-107088928D01*
X164720518Y-107101188D01*
X164600820Y-107137498D01*
X164490506Y-107196463D01*
X164465000Y-107217395D01*
X164439494Y-107196463D01*
X164329180Y-107137498D01*
X164209482Y-107101188D01*
X164085000Y-107088928D01*
X162305000Y-107088928D01*
X162180518Y-107101188D01*
X162060820Y-107137498D01*
X161950506Y-107196463D01*
X161925000Y-107217395D01*
X161899494Y-107196463D01*
X161789180Y-107137498D01*
X161669482Y-107101188D01*
X161545000Y-107088928D01*
X159765000Y-107088928D01*
X159640518Y-107101188D01*
X159520820Y-107137498D01*
X159410506Y-107196463D01*
X159385000Y-107217395D01*
X159359494Y-107196463D01*
X159249180Y-107137498D01*
X159129482Y-107101188D01*
X159005000Y-107088928D01*
X157225000Y-107088928D01*
X157100518Y-107101188D01*
X156980820Y-107137498D01*
X156870506Y-107196463D01*
X156845000Y-107217395D01*
X156819494Y-107196463D01*
X156709180Y-107137498D01*
X156589482Y-107101188D01*
X156465000Y-107088928D01*
X154685000Y-107088928D01*
X154560518Y-107101188D01*
X154440820Y-107137498D01*
X154330506Y-107196463D01*
X154305000Y-107217395D01*
X154279494Y-107196463D01*
X154169180Y-107137498D01*
X154049482Y-107101188D01*
X153925000Y-107088928D01*
X152145000Y-107088928D01*
X152020518Y-107101188D01*
X151900820Y-107137498D01*
X151790506Y-107196463D01*
X151765000Y-107217395D01*
X151739494Y-107196463D01*
X151629180Y-107137498D01*
X151509482Y-107101188D01*
X151385000Y-107088928D01*
X149605000Y-107088928D01*
X149480518Y-107101188D01*
X149360820Y-107137498D01*
X149250506Y-107196463D01*
X149225000Y-107217395D01*
X149199494Y-107196463D01*
X149089180Y-107137498D01*
X148969482Y-107101188D01*
X148845000Y-107088928D01*
X147065000Y-107088928D01*
X146940518Y-107101188D01*
X146820820Y-107137498D01*
X146710506Y-107196463D01*
X146685000Y-107217395D01*
X146659494Y-107196463D01*
X146549180Y-107137498D01*
X146429482Y-107101188D01*
X146305000Y-107088928D01*
X144525000Y-107088928D01*
X144400518Y-107101188D01*
X144280820Y-107137498D01*
X144170506Y-107196463D01*
X144145000Y-107217395D01*
X144119494Y-107196463D01*
X144009180Y-107137498D01*
X143889482Y-107101188D01*
X143765000Y-107088928D01*
X141985000Y-107088928D01*
X141860518Y-107101188D01*
X141740820Y-107137498D01*
X141630506Y-107196463D01*
X141605000Y-107217395D01*
X141579494Y-107196463D01*
X141469180Y-107137498D01*
X141349482Y-107101188D01*
X141225000Y-107088928D01*
X139445000Y-107088928D01*
X139320518Y-107101188D01*
X139200820Y-107137498D01*
X139090506Y-107196463D01*
X139065000Y-107217395D01*
X139039494Y-107196463D01*
X138929180Y-107137498D01*
X138809482Y-107101188D01*
X138685000Y-107088928D01*
X136905000Y-107088928D01*
X136780518Y-107101188D01*
X136660820Y-107137498D01*
X136550506Y-107196463D01*
X136525000Y-107217395D01*
X136499494Y-107196463D01*
X136389180Y-107137498D01*
X136269482Y-107101188D01*
X136145000Y-107088928D01*
X134365000Y-107088928D01*
X134240518Y-107101188D01*
X134120820Y-107137498D01*
X134010506Y-107196463D01*
X133985000Y-107217395D01*
X133959494Y-107196463D01*
X133849180Y-107137498D01*
X133729482Y-107101188D01*
X133605000Y-107088928D01*
X131825000Y-107088928D01*
X131700518Y-107101188D01*
X131580820Y-107137498D01*
X131470506Y-107196463D01*
X131445000Y-107217395D01*
X131419494Y-107196463D01*
X131309180Y-107137498D01*
X131189482Y-107101188D01*
X131065000Y-107088928D01*
X129285000Y-107088928D01*
X129160518Y-107101188D01*
X129040820Y-107137498D01*
X128930506Y-107196463D01*
X128905000Y-107217395D01*
X128879494Y-107196463D01*
X128769180Y-107137498D01*
X128649482Y-107101188D01*
X128525000Y-107088928D01*
X126745000Y-107088928D01*
X126620518Y-107101188D01*
X126500820Y-107137498D01*
X126390506Y-107196463D01*
X126365000Y-107217395D01*
X126339494Y-107196463D01*
X126229180Y-107137498D01*
X126109482Y-107101188D01*
X125985000Y-107088928D01*
X124205000Y-107088928D01*
X124080518Y-107101188D01*
X123960820Y-107137498D01*
X123850506Y-107196463D01*
X123825000Y-107217395D01*
X123799494Y-107196463D01*
X123689180Y-107137498D01*
X123569482Y-107101188D01*
X123445000Y-107088928D01*
X122944460Y-107088928D01*
X122955000Y-107035939D01*
X122955000Y-106832061D01*
X122915226Y-106632102D01*
X122837205Y-106443744D01*
X122815527Y-106411300D01*
X122837205Y-106378856D01*
X122915226Y-106190498D01*
X122955000Y-105990539D01*
X122955000Y-105816061D01*
X128414990Y-105816061D01*
X128414990Y-106019939D01*
X128454764Y-106219898D01*
X128532785Y-106408256D01*
X128646053Y-106577774D01*
X128790216Y-106721937D01*
X128959734Y-106835205D01*
X129148092Y-106913226D01*
X129348051Y-106953000D01*
X129551929Y-106953000D01*
X129751888Y-106913226D01*
X129940246Y-106835205D01*
X130109764Y-106721937D01*
X130253927Y-106577774D01*
X130367195Y-106408256D01*
X130445216Y-106219898D01*
X130484990Y-106019939D01*
X130484990Y-105816061D01*
X130479341Y-105787661D01*
X162393000Y-105787661D01*
X162393000Y-105991539D01*
X162432774Y-106191498D01*
X162510795Y-106379856D01*
X162624063Y-106549374D01*
X162768226Y-106693537D01*
X162937744Y-106806805D01*
X163126102Y-106884826D01*
X163326061Y-106924600D01*
X163529939Y-106924600D01*
X163729898Y-106884826D01*
X163918256Y-106806805D01*
X164087774Y-106693537D01*
X164231937Y-106549374D01*
X164345205Y-106379856D01*
X164423226Y-106191498D01*
X164463000Y-105991539D01*
X164463000Y-105787661D01*
X164423226Y-105587702D01*
X164345205Y-105399344D01*
X164231937Y-105229826D01*
X164158972Y-105156861D01*
X169159300Y-105156861D01*
X169159300Y-105360739D01*
X169199074Y-105560698D01*
X169277095Y-105749056D01*
X169390363Y-105918574D01*
X169534526Y-106062737D01*
X169704044Y-106176005D01*
X169892402Y-106254026D01*
X170092361Y-106293800D01*
X170296239Y-106293800D01*
X170496198Y-106254026D01*
X170684556Y-106176005D01*
X170854074Y-106062737D01*
X170998237Y-105918574D01*
X171111505Y-105749056D01*
X171189526Y-105560698D01*
X171229300Y-105360739D01*
X171229300Y-105156861D01*
X171189526Y-104956902D01*
X171111505Y-104768544D01*
X170998237Y-104599026D01*
X170854074Y-104454863D01*
X170684556Y-104341595D01*
X170496198Y-104263574D01*
X170296239Y-104223800D01*
X170092361Y-104223800D01*
X169892402Y-104263574D01*
X169704044Y-104341595D01*
X169534526Y-104454863D01*
X169390363Y-104599026D01*
X169277095Y-104768544D01*
X169199074Y-104956902D01*
X169159300Y-105156861D01*
X164158972Y-105156861D01*
X164087774Y-105085663D01*
X163918256Y-104972395D01*
X163729898Y-104894374D01*
X163529939Y-104854600D01*
X163326061Y-104854600D01*
X163126102Y-104894374D01*
X162937744Y-104972395D01*
X162768226Y-105085663D01*
X162624063Y-105229826D01*
X162510795Y-105399344D01*
X162432774Y-105587702D01*
X162393000Y-105787661D01*
X130479341Y-105787661D01*
X130445216Y-105616102D01*
X130367195Y-105427744D01*
X130253927Y-105258226D01*
X130109764Y-105114063D01*
X129940246Y-105000795D01*
X129751888Y-104922774D01*
X129551929Y-104883000D01*
X129348051Y-104883000D01*
X129148092Y-104922774D01*
X128959734Y-105000795D01*
X128790216Y-105114063D01*
X128646053Y-105258226D01*
X128532785Y-105427744D01*
X128454764Y-105616102D01*
X128414990Y-105816061D01*
X122955000Y-105816061D01*
X122955000Y-105786661D01*
X122915226Y-105586702D01*
X122837205Y-105398344D01*
X122723937Y-105228826D01*
X122579774Y-105084663D01*
X122410256Y-104971395D01*
X122221898Y-104893374D01*
X122021939Y-104853600D01*
X121818061Y-104853600D01*
X121618102Y-104893374D01*
X121429744Y-104971395D01*
X121260226Y-105084663D01*
X121116063Y-105228826D01*
X121002795Y-105398344D01*
X120924774Y-105586702D01*
X120885000Y-105786661D01*
X120885000Y-105990539D01*
X120924774Y-106190498D01*
X121002795Y-106378856D01*
X121024473Y-106411300D01*
X121002795Y-106443744D01*
X120924774Y-106632102D01*
X120885000Y-106832061D01*
X120885000Y-107035939D01*
X120895540Y-107088928D01*
X119125000Y-107088928D01*
X119000518Y-107101188D01*
X118880820Y-107137498D01*
X118770506Y-107196463D01*
X118745000Y-107217395D01*
X118719494Y-107196463D01*
X118609180Y-107137498D01*
X118489482Y-107101188D01*
X118365000Y-107088928D01*
X116585000Y-107088928D01*
X116460518Y-107101188D01*
X116340820Y-107137498D01*
X116230506Y-107196463D01*
X116205000Y-107217395D01*
X116179494Y-107196463D01*
X116069180Y-107137498D01*
X115949482Y-107101188D01*
X115825000Y-107088928D01*
X115378172Y-107088928D01*
X115383600Y-107061639D01*
X115383600Y-106857761D01*
X115343826Y-106657802D01*
X115265805Y-106469444D01*
X115152537Y-106299926D01*
X115008374Y-106155763D01*
X114838856Y-106042495D01*
X114650498Y-105964474D01*
X114450539Y-105924700D01*
X114246661Y-105924700D01*
X114046702Y-105964474D01*
X113858344Y-106042495D01*
X113688826Y-106155763D01*
X113544663Y-106299926D01*
X113431395Y-106469444D01*
X113353374Y-106657802D01*
X113313600Y-106857761D01*
X113313600Y-107061639D01*
X113319708Y-107092346D01*
X113285000Y-107088928D01*
X111505000Y-107088928D01*
X111380518Y-107101188D01*
X111260820Y-107137498D01*
X111150506Y-107196463D01*
X111125000Y-107217395D01*
X111099494Y-107196463D01*
X110989180Y-107137498D01*
X110869482Y-107101188D01*
X110745000Y-107088928D01*
X108965000Y-107088928D01*
X108840518Y-107101188D01*
X108720820Y-107137498D01*
X108610506Y-107196463D01*
X108513815Y-107275815D01*
X108434463Y-107372506D01*
X108375498Y-107482820D01*
X108339188Y-107602518D01*
X108326928Y-107727000D01*
X108326928Y-110642800D01*
X106045000Y-110642800D01*
X106045000Y-102561061D01*
X121464300Y-102561061D01*
X121464300Y-102764939D01*
X121504074Y-102964898D01*
X121582095Y-103153256D01*
X121695363Y-103322774D01*
X121839526Y-103466937D01*
X122009044Y-103580205D01*
X122197402Y-103658226D01*
X122397361Y-103698000D01*
X122601239Y-103698000D01*
X122801198Y-103658226D01*
X122989556Y-103580205D01*
X123159074Y-103466937D01*
X123303237Y-103322774D01*
X123416505Y-103153256D01*
X123494526Y-102964898D01*
X123495724Y-102958874D01*
X128406009Y-102958874D01*
X128406009Y-103162752D01*
X128445783Y-103362711D01*
X128523804Y-103551069D01*
X128637072Y-103720587D01*
X128781235Y-103864750D01*
X128950753Y-103978018D01*
X129139111Y-104056039D01*
X129339070Y-104095813D01*
X129542948Y-104095813D01*
X129742907Y-104056039D01*
X129931265Y-103978018D01*
X130100783Y-103864750D01*
X130244946Y-103720587D01*
X130358214Y-103551069D01*
X130436235Y-103362711D01*
X130476009Y-103162752D01*
X130476009Y-102958874D01*
X130436235Y-102758915D01*
X130421930Y-102724381D01*
X130507737Y-102638574D01*
X130621005Y-102469056D01*
X130636271Y-102432200D01*
X130638939Y-102432200D01*
X130838898Y-102392426D01*
X131020870Y-102317050D01*
X131070495Y-102436856D01*
X131097987Y-102478000D01*
X131078444Y-102486095D01*
X130908926Y-102599363D01*
X130764763Y-102743526D01*
X130651495Y-102913044D01*
X130573474Y-103101402D01*
X130533700Y-103301361D01*
X130533700Y-103505239D01*
X130573474Y-103705198D01*
X130651495Y-103893556D01*
X130764763Y-104063074D01*
X130908926Y-104207237D01*
X131078444Y-104320505D01*
X131266802Y-104398526D01*
X131466761Y-104438300D01*
X131670639Y-104438300D01*
X131870598Y-104398526D01*
X131892241Y-104389561D01*
X142870300Y-104389561D01*
X142870300Y-104593439D01*
X142910074Y-104793398D01*
X142988095Y-104981756D01*
X143101363Y-105151274D01*
X143245526Y-105295437D01*
X143415044Y-105408705D01*
X143603402Y-105486726D01*
X143803361Y-105526500D01*
X144007239Y-105526500D01*
X144207198Y-105486726D01*
X144395556Y-105408705D01*
X144565074Y-105295437D01*
X144709237Y-105151274D01*
X144822505Y-104981756D01*
X144900526Y-104793398D01*
X144940300Y-104593439D01*
X144940300Y-104389561D01*
X144900526Y-104189602D01*
X144822505Y-104001244D01*
X144709237Y-103831726D01*
X144565074Y-103687563D01*
X144395556Y-103574295D01*
X144207198Y-103496274D01*
X144007239Y-103456500D01*
X143803361Y-103456500D01*
X143603402Y-103496274D01*
X143415044Y-103574295D01*
X143245526Y-103687563D01*
X143101363Y-103831726D01*
X142988095Y-104001244D01*
X142910074Y-104189602D01*
X142870300Y-104389561D01*
X131892241Y-104389561D01*
X132058956Y-104320505D01*
X132228474Y-104207237D01*
X132372637Y-104063074D01*
X132485905Y-103893556D01*
X132563926Y-103705198D01*
X132572244Y-103663379D01*
X132611061Y-103671100D01*
X132814939Y-103671100D01*
X133014898Y-103631326D01*
X133203256Y-103553305D01*
X133372774Y-103440037D01*
X133516937Y-103295874D01*
X133630205Y-103126356D01*
X133708226Y-102937998D01*
X133748000Y-102738039D01*
X133748000Y-102564561D01*
X144104800Y-102564561D01*
X144104800Y-102768439D01*
X144144574Y-102968398D01*
X144222595Y-103156756D01*
X144335863Y-103326274D01*
X144480026Y-103470437D01*
X144649544Y-103583705D01*
X144837902Y-103661726D01*
X145037861Y-103701500D01*
X145241739Y-103701500D01*
X145441698Y-103661726D01*
X145630056Y-103583705D01*
X145799574Y-103470437D01*
X145943737Y-103326274D01*
X146057005Y-103156756D01*
X146084311Y-103090834D01*
X146139492Y-103101810D01*
X146343370Y-103101810D01*
X146543329Y-103062036D01*
X146731687Y-102984015D01*
X146901205Y-102870747D01*
X147045368Y-102726584D01*
X147158636Y-102557066D01*
X147236657Y-102368708D01*
X147276431Y-102168749D01*
X147276431Y-101964871D01*
X147275475Y-101960061D01*
X153585600Y-101960061D01*
X153585600Y-102163939D01*
X153625374Y-102363898D01*
X153703395Y-102552256D01*
X153816663Y-102721774D01*
X153960826Y-102865937D01*
X154130344Y-102979205D01*
X154318702Y-103057226D01*
X154518661Y-103097000D01*
X154722539Y-103097000D01*
X154922498Y-103057226D01*
X155110856Y-102979205D01*
X155186056Y-102928958D01*
X155290759Y-103085658D01*
X155434922Y-103229821D01*
X155604440Y-103343089D01*
X155792798Y-103421110D01*
X155992757Y-103460884D01*
X156196635Y-103460884D01*
X156396594Y-103421110D01*
X156584952Y-103343089D01*
X156754470Y-103229821D01*
X156898633Y-103085658D01*
X157011901Y-102916140D01*
X157089922Y-102727782D01*
X157129696Y-102527823D01*
X157129696Y-102323945D01*
X157089922Y-102123986D01*
X157011901Y-101935628D01*
X156898633Y-101766110D01*
X156754470Y-101621947D01*
X156584952Y-101508679D01*
X156396594Y-101430658D01*
X156196635Y-101390884D01*
X156029230Y-101390884D01*
X156157856Y-101337605D01*
X156327374Y-101224337D01*
X156471537Y-101080174D01*
X156584805Y-100910656D01*
X156662826Y-100722298D01*
X156702600Y-100522339D01*
X156702600Y-100318461D01*
X156662826Y-100118502D01*
X156633152Y-100046861D01*
X157336300Y-100046861D01*
X157336300Y-100250739D01*
X157376074Y-100450698D01*
X157454095Y-100639056D01*
X157567363Y-100808574D01*
X157711526Y-100952737D01*
X157881044Y-101066005D01*
X158069402Y-101144026D01*
X158269361Y-101183800D01*
X158473239Y-101183800D01*
X158673198Y-101144026D01*
X158861556Y-101066005D01*
X159031074Y-100952737D01*
X159175237Y-100808574D01*
X159226294Y-100732161D01*
X160130400Y-100732161D01*
X160130400Y-100936039D01*
X160170174Y-101135998D01*
X160248195Y-101324356D01*
X160361463Y-101493874D01*
X160505626Y-101638037D01*
X160675144Y-101751305D01*
X160863502Y-101829326D01*
X161063461Y-101869100D01*
X161267339Y-101869100D01*
X161467298Y-101829326D01*
X161655656Y-101751305D01*
X161825174Y-101638037D01*
X161969337Y-101493874D01*
X162004090Y-101441861D01*
X162244900Y-101441861D01*
X162244900Y-101645739D01*
X162284674Y-101845698D01*
X162362695Y-102034056D01*
X162475963Y-102203574D01*
X162620126Y-102347737D01*
X162789644Y-102461005D01*
X162978002Y-102539026D01*
X163177961Y-102578800D01*
X163381839Y-102578800D01*
X163581798Y-102539026D01*
X163594991Y-102533561D01*
X171074700Y-102533561D01*
X171074700Y-102737439D01*
X171114474Y-102937398D01*
X171192495Y-103125756D01*
X171305763Y-103295274D01*
X171449926Y-103439437D01*
X171619444Y-103552705D01*
X171807802Y-103630726D01*
X172007761Y-103670500D01*
X172211639Y-103670500D01*
X172411598Y-103630726D01*
X172599956Y-103552705D01*
X172769474Y-103439437D01*
X172913637Y-103295274D01*
X173026905Y-103125756D01*
X173104926Y-102937398D01*
X173144700Y-102737439D01*
X173144700Y-102533561D01*
X173104926Y-102333602D01*
X173026905Y-102145244D01*
X172913637Y-101975726D01*
X172769474Y-101831563D01*
X172599956Y-101718295D01*
X172411598Y-101640274D01*
X172211639Y-101600500D01*
X172007761Y-101600500D01*
X171807802Y-101640274D01*
X171619444Y-101718295D01*
X171449926Y-101831563D01*
X171305763Y-101975726D01*
X171192495Y-102145244D01*
X171114474Y-102333602D01*
X171074700Y-102533561D01*
X163594991Y-102533561D01*
X163770156Y-102461005D01*
X163939674Y-102347737D01*
X164083837Y-102203574D01*
X164197105Y-102034056D01*
X164275126Y-101845698D01*
X164314900Y-101645739D01*
X164314900Y-101441861D01*
X164275126Y-101241902D01*
X164197105Y-101053544D01*
X164083837Y-100884026D01*
X163939674Y-100739863D01*
X163770156Y-100626595D01*
X163581798Y-100548574D01*
X163381839Y-100508800D01*
X163177961Y-100508800D01*
X162978002Y-100548574D01*
X162789644Y-100626595D01*
X162620126Y-100739863D01*
X162475963Y-100884026D01*
X162362695Y-101053544D01*
X162284674Y-101241902D01*
X162244900Y-101441861D01*
X162004090Y-101441861D01*
X162082605Y-101324356D01*
X162160626Y-101135998D01*
X162200400Y-100936039D01*
X162200400Y-100732161D01*
X162160626Y-100532202D01*
X162082605Y-100343844D01*
X161969337Y-100174326D01*
X161825174Y-100030163D01*
X161718314Y-99958761D01*
X166234300Y-99958761D01*
X166234300Y-100162639D01*
X166274074Y-100362598D01*
X166352095Y-100550956D01*
X166465363Y-100720474D01*
X166609526Y-100864637D01*
X166779044Y-100977905D01*
X166967402Y-101055926D01*
X167167361Y-101095700D01*
X167371239Y-101095700D01*
X167571198Y-101055926D01*
X167759556Y-100977905D01*
X167929074Y-100864637D01*
X168073237Y-100720474D01*
X168186505Y-100550956D01*
X168264526Y-100362598D01*
X168304300Y-100162639D01*
X168304300Y-99958761D01*
X168264526Y-99758802D01*
X168186505Y-99570444D01*
X168073237Y-99400926D01*
X167929074Y-99256763D01*
X167759556Y-99143495D01*
X167571198Y-99065474D01*
X167371239Y-99025700D01*
X167167361Y-99025700D01*
X166967402Y-99065474D01*
X166779044Y-99143495D01*
X166609526Y-99256763D01*
X166465363Y-99400926D01*
X166352095Y-99570444D01*
X166274074Y-99758802D01*
X166234300Y-99958761D01*
X161718314Y-99958761D01*
X161655656Y-99916895D01*
X161467298Y-99838874D01*
X161267339Y-99799100D01*
X161063461Y-99799100D01*
X160863502Y-99838874D01*
X160675144Y-99916895D01*
X160505626Y-100030163D01*
X160361463Y-100174326D01*
X160248195Y-100343844D01*
X160170174Y-100532202D01*
X160130400Y-100732161D01*
X159226294Y-100732161D01*
X159288505Y-100639056D01*
X159366526Y-100450698D01*
X159406300Y-100250739D01*
X159406300Y-100046861D01*
X159366526Y-99846902D01*
X159288505Y-99658544D01*
X159175237Y-99489026D01*
X159031074Y-99344863D01*
X158861556Y-99231595D01*
X158673198Y-99153574D01*
X158473239Y-99113800D01*
X158269361Y-99113800D01*
X158069402Y-99153574D01*
X157881044Y-99231595D01*
X157711526Y-99344863D01*
X157567363Y-99489026D01*
X157454095Y-99658544D01*
X157376074Y-99846902D01*
X157336300Y-100046861D01*
X156633152Y-100046861D01*
X156584805Y-99930144D01*
X156471537Y-99760626D01*
X156327374Y-99616463D01*
X156157856Y-99503195D01*
X155969498Y-99425174D01*
X155769539Y-99385400D01*
X155565661Y-99385400D01*
X155365702Y-99425174D01*
X155177344Y-99503195D01*
X155007826Y-99616463D01*
X154863663Y-99760626D01*
X154750395Y-99930144D01*
X154672374Y-100118502D01*
X154632600Y-100318461D01*
X154632600Y-100522339D01*
X154672374Y-100722298D01*
X154750395Y-100910656D01*
X154844319Y-101051223D01*
X154722539Y-101027000D01*
X154518661Y-101027000D01*
X154318702Y-101066774D01*
X154130344Y-101144795D01*
X153960826Y-101258063D01*
X153816663Y-101402226D01*
X153703395Y-101571744D01*
X153625374Y-101760102D01*
X153585600Y-101960061D01*
X147275475Y-101960061D01*
X147236657Y-101764912D01*
X147158636Y-101576554D01*
X147045368Y-101407036D01*
X146901205Y-101262873D01*
X146731687Y-101149605D01*
X146543329Y-101071584D01*
X146343370Y-101031810D01*
X146139492Y-101031810D01*
X145939533Y-101071584D01*
X145751175Y-101149605D01*
X145581657Y-101262873D01*
X145437494Y-101407036D01*
X145324226Y-101576554D01*
X145296920Y-101642476D01*
X145241739Y-101631500D01*
X145037861Y-101631500D01*
X144837902Y-101671274D01*
X144649544Y-101749295D01*
X144480026Y-101862563D01*
X144335863Y-102006726D01*
X144222595Y-102176244D01*
X144144574Y-102364602D01*
X144104800Y-102564561D01*
X133748000Y-102564561D01*
X133748000Y-102534161D01*
X133708226Y-102334202D01*
X133630205Y-102145844D01*
X133516937Y-101976326D01*
X133372774Y-101832163D01*
X133203256Y-101718895D01*
X133014898Y-101640874D01*
X132978327Y-101633600D01*
X132904905Y-101456344D01*
X132791637Y-101286826D01*
X132647474Y-101142663D01*
X132477956Y-101029395D01*
X132289598Y-100951374D01*
X132089639Y-100911600D01*
X131885761Y-100911600D01*
X131685802Y-100951374D01*
X131503830Y-101026750D01*
X131454205Y-100906944D01*
X131340937Y-100737426D01*
X131196774Y-100593263D01*
X131027256Y-100479995D01*
X130838898Y-100401974D01*
X130638939Y-100362200D01*
X130435061Y-100362200D01*
X130235102Y-100401974D01*
X130046744Y-100479995D01*
X129877226Y-100593263D01*
X129733063Y-100737426D01*
X129619795Y-100906944D01*
X129604529Y-100943800D01*
X129601861Y-100943800D01*
X129401902Y-100983574D01*
X129213544Y-101061595D01*
X129044026Y-101174863D01*
X128899863Y-101319026D01*
X128786595Y-101488544D01*
X128708574Y-101676902D01*
X128668800Y-101876861D01*
X128668800Y-102080739D01*
X128708574Y-102280698D01*
X128722879Y-102315232D01*
X128637072Y-102401039D01*
X128523804Y-102570557D01*
X128445783Y-102758915D01*
X128406009Y-102958874D01*
X123495724Y-102958874D01*
X123534300Y-102764939D01*
X123534300Y-102561061D01*
X123494526Y-102361102D01*
X123416505Y-102172744D01*
X123303237Y-102003226D01*
X123159074Y-101859063D01*
X122989556Y-101745795D01*
X122801198Y-101667774D01*
X122601239Y-101628000D01*
X122397361Y-101628000D01*
X122197402Y-101667774D01*
X122009044Y-101745795D01*
X121839526Y-101859063D01*
X121695363Y-102003226D01*
X121582095Y-102172744D01*
X121504074Y-102361102D01*
X121464300Y-102561061D01*
X106045000Y-102561061D01*
X106045000Y-100912161D01*
X113917800Y-100912161D01*
X113917800Y-101116039D01*
X113957574Y-101315998D01*
X114035595Y-101504356D01*
X114148863Y-101673874D01*
X114293026Y-101818037D01*
X114462544Y-101931305D01*
X114650902Y-102009326D01*
X114850861Y-102049100D01*
X115054739Y-102049100D01*
X115254698Y-102009326D01*
X115443056Y-101931305D01*
X115612574Y-101818037D01*
X115756737Y-101673874D01*
X115870005Y-101504356D01*
X115948026Y-101315998D01*
X115987800Y-101116039D01*
X115987800Y-100912161D01*
X115948026Y-100712202D01*
X115870005Y-100523844D01*
X115756737Y-100354326D01*
X115612574Y-100210163D01*
X115443056Y-100096895D01*
X115254698Y-100018874D01*
X115054739Y-99979100D01*
X114850861Y-99979100D01*
X114650902Y-100018874D01*
X114462544Y-100096895D01*
X114293026Y-100210163D01*
X114148863Y-100354326D01*
X114035595Y-100523844D01*
X113957574Y-100712202D01*
X113917800Y-100912161D01*
X106045000Y-100912161D01*
X106045000Y-98958061D01*
X110725000Y-98958061D01*
X110725000Y-99161939D01*
X110764774Y-99361898D01*
X110842795Y-99550256D01*
X110956063Y-99719774D01*
X111100226Y-99863937D01*
X111269744Y-99977205D01*
X111458102Y-100055226D01*
X111658061Y-100095000D01*
X111861939Y-100095000D01*
X112061898Y-100055226D01*
X112250256Y-99977205D01*
X112419774Y-99863937D01*
X112563937Y-99719774D01*
X112677205Y-99550256D01*
X112755226Y-99361898D01*
X112795000Y-99161939D01*
X112795000Y-99076661D01*
X115489700Y-99076661D01*
X115489700Y-99280539D01*
X115529474Y-99480498D01*
X115607495Y-99668856D01*
X115720763Y-99838374D01*
X115864926Y-99982537D01*
X116034444Y-100095805D01*
X116222802Y-100173826D01*
X116422761Y-100213600D01*
X116626639Y-100213600D01*
X116826598Y-100173826D01*
X117014956Y-100095805D01*
X117184474Y-99982537D01*
X117328637Y-99838374D01*
X117438906Y-99673345D01*
X117439744Y-99673905D01*
X117628102Y-99751926D01*
X117828061Y-99791700D01*
X118031939Y-99791700D01*
X118231898Y-99751926D01*
X118420256Y-99673905D01*
X118589774Y-99560637D01*
X118733937Y-99416474D01*
X118847205Y-99246956D01*
X118925226Y-99058598D01*
X118965000Y-98858639D01*
X118965000Y-98664561D01*
X119488000Y-98664561D01*
X119488000Y-98868439D01*
X119527774Y-99068398D01*
X119605795Y-99256756D01*
X119719063Y-99426274D01*
X119863226Y-99570437D01*
X120032744Y-99683705D01*
X120221102Y-99761726D01*
X120421061Y-99801500D01*
X120624939Y-99801500D01*
X120824898Y-99761726D01*
X121013256Y-99683705D01*
X121182774Y-99570437D01*
X121326937Y-99426274D01*
X121440205Y-99256756D01*
X121518226Y-99068398D01*
X121558000Y-98868439D01*
X121558000Y-98664561D01*
X121549624Y-98622451D01*
X122028000Y-98622451D01*
X122028000Y-98826329D01*
X122067774Y-99026288D01*
X122145795Y-99214646D01*
X122259063Y-99384164D01*
X122403226Y-99528327D01*
X122572744Y-99641595D01*
X122761102Y-99719616D01*
X122961061Y-99759390D01*
X123164939Y-99759390D01*
X123364898Y-99719616D01*
X123553256Y-99641595D01*
X123722774Y-99528327D01*
X123866937Y-99384164D01*
X123980205Y-99214646D01*
X124043814Y-99061079D01*
X124542701Y-99061079D01*
X124542701Y-99264957D01*
X124582475Y-99464916D01*
X124660496Y-99653274D01*
X124773764Y-99822792D01*
X124917927Y-99966955D01*
X125087445Y-100080223D01*
X125275803Y-100158244D01*
X125475762Y-100198018D01*
X125679640Y-100198018D01*
X125879599Y-100158244D01*
X126067957Y-100080223D01*
X126237475Y-99966955D01*
X126381638Y-99822792D01*
X126494906Y-99653274D01*
X126572927Y-99464916D01*
X126590581Y-99376161D01*
X126892735Y-99376161D01*
X126892735Y-99580039D01*
X126932509Y-99779998D01*
X127010530Y-99968356D01*
X127123798Y-100137874D01*
X127267961Y-100282037D01*
X127437479Y-100395305D01*
X127625837Y-100473326D01*
X127825796Y-100513100D01*
X128029674Y-100513100D01*
X128229633Y-100473326D01*
X128417991Y-100395305D01*
X128587509Y-100282037D01*
X128731672Y-100137874D01*
X128844940Y-99968356D01*
X128922961Y-99779998D01*
X128962735Y-99580039D01*
X128962735Y-99376161D01*
X128922961Y-99176202D01*
X128844940Y-98987844D01*
X128731672Y-98818326D01*
X128587509Y-98674163D01*
X128417991Y-98560895D01*
X128229633Y-98482874D01*
X128029674Y-98443100D01*
X127825796Y-98443100D01*
X127625837Y-98482874D01*
X127437479Y-98560895D01*
X127267961Y-98674163D01*
X127123798Y-98818326D01*
X127010530Y-98987844D01*
X126932509Y-99176202D01*
X126892735Y-99376161D01*
X126590581Y-99376161D01*
X126612701Y-99264957D01*
X126612701Y-99061079D01*
X126572927Y-98861120D01*
X126494906Y-98672762D01*
X126381638Y-98503244D01*
X126237475Y-98359081D01*
X126067957Y-98245813D01*
X125879599Y-98167792D01*
X125679640Y-98128018D01*
X125475762Y-98128018D01*
X125275803Y-98167792D01*
X125087445Y-98245813D01*
X124917927Y-98359081D01*
X124773764Y-98503244D01*
X124660496Y-98672762D01*
X124582475Y-98861120D01*
X124542701Y-99061079D01*
X124043814Y-99061079D01*
X124058226Y-99026288D01*
X124098000Y-98826329D01*
X124098000Y-98622451D01*
X124058226Y-98422492D01*
X123980205Y-98234134D01*
X123866937Y-98064616D01*
X123827582Y-98025261D01*
X134220300Y-98025261D01*
X134220300Y-98229139D01*
X134260074Y-98429098D01*
X134338095Y-98617456D01*
X134451363Y-98786974D01*
X134595526Y-98931137D01*
X134765044Y-99044405D01*
X134953402Y-99122426D01*
X135153361Y-99162200D01*
X135357239Y-99162200D01*
X135521218Y-99129583D01*
X135529774Y-99172598D01*
X135607795Y-99360956D01*
X135721063Y-99530474D01*
X135865226Y-99674637D01*
X136034744Y-99787905D01*
X136223102Y-99865926D01*
X136423061Y-99905700D01*
X136626939Y-99905700D01*
X136826898Y-99865926D01*
X137015256Y-99787905D01*
X137184774Y-99674637D01*
X137328937Y-99530474D01*
X137442205Y-99360956D01*
X137520226Y-99172598D01*
X137560000Y-98972639D01*
X137560000Y-98768761D01*
X137541800Y-98677261D01*
X138861300Y-98677261D01*
X138861300Y-98881139D01*
X138901074Y-99081098D01*
X138979095Y-99269456D01*
X139092363Y-99438974D01*
X139236526Y-99583137D01*
X139406044Y-99696405D01*
X139594402Y-99774426D01*
X139794361Y-99814200D01*
X139998239Y-99814200D01*
X140198198Y-99774426D01*
X140386556Y-99696405D01*
X140556074Y-99583137D01*
X140700237Y-99438974D01*
X140758036Y-99352471D01*
X144253000Y-99352471D01*
X144253000Y-99556349D01*
X144292774Y-99756308D01*
X144370795Y-99944666D01*
X144484063Y-100114184D01*
X144628226Y-100258347D01*
X144797744Y-100371615D01*
X144986102Y-100449636D01*
X145186061Y-100489410D01*
X145389939Y-100489410D01*
X145589898Y-100449636D01*
X145778256Y-100371615D01*
X145947774Y-100258347D01*
X146091937Y-100114184D01*
X146205205Y-99944666D01*
X146248037Y-99841261D01*
X150173100Y-99841261D01*
X150173100Y-100045139D01*
X150212874Y-100245098D01*
X150290895Y-100433456D01*
X150404163Y-100602974D01*
X150548326Y-100747137D01*
X150717844Y-100860405D01*
X150906202Y-100938426D01*
X151106161Y-100978200D01*
X151310039Y-100978200D01*
X151509998Y-100938426D01*
X151698356Y-100860405D01*
X151867874Y-100747137D01*
X152012037Y-100602974D01*
X152125305Y-100433456D01*
X152203326Y-100245098D01*
X152243100Y-100045139D01*
X152243100Y-99841261D01*
X152203326Y-99641302D01*
X152125305Y-99452944D01*
X152012037Y-99283426D01*
X151867874Y-99139263D01*
X151698356Y-99025995D01*
X151509998Y-98947974D01*
X151310039Y-98908200D01*
X151106161Y-98908200D01*
X150906202Y-98947974D01*
X150717844Y-99025995D01*
X150548326Y-99139263D01*
X150404163Y-99283426D01*
X150290895Y-99452944D01*
X150212874Y-99641302D01*
X150173100Y-99841261D01*
X146248037Y-99841261D01*
X146283226Y-99756308D01*
X146323000Y-99556349D01*
X146323000Y-99352471D01*
X146283226Y-99152512D01*
X146205205Y-98964154D01*
X146091937Y-98794636D01*
X145947774Y-98650473D01*
X145778256Y-98537205D01*
X145589898Y-98459184D01*
X145389939Y-98419410D01*
X145186061Y-98419410D01*
X144986102Y-98459184D01*
X144797744Y-98537205D01*
X144628226Y-98650473D01*
X144484063Y-98794636D01*
X144370795Y-98964154D01*
X144292774Y-99152512D01*
X144253000Y-99352471D01*
X140758036Y-99352471D01*
X140813505Y-99269456D01*
X140891526Y-99081098D01*
X140931300Y-98881139D01*
X140931300Y-98677261D01*
X140891526Y-98477302D01*
X140813505Y-98288944D01*
X140700237Y-98119426D01*
X140556074Y-97975263D01*
X140386556Y-97861995D01*
X140198198Y-97783974D01*
X139998239Y-97744200D01*
X139794361Y-97744200D01*
X139594402Y-97783974D01*
X139406044Y-97861995D01*
X139236526Y-97975263D01*
X139092363Y-98119426D01*
X138979095Y-98288944D01*
X138901074Y-98477302D01*
X138861300Y-98677261D01*
X137541800Y-98677261D01*
X137520226Y-98568802D01*
X137442205Y-98380444D01*
X137328937Y-98210926D01*
X137184774Y-98066763D01*
X137015256Y-97953495D01*
X136826898Y-97875474D01*
X136626939Y-97835700D01*
X136423061Y-97835700D01*
X136259082Y-97868317D01*
X136250526Y-97825302D01*
X136172505Y-97636944D01*
X136059237Y-97467426D01*
X135915074Y-97323263D01*
X135745556Y-97209995D01*
X135557198Y-97131974D01*
X135357239Y-97092200D01*
X135153361Y-97092200D01*
X134953402Y-97131974D01*
X134765044Y-97209995D01*
X134595526Y-97323263D01*
X134451363Y-97467426D01*
X134338095Y-97636944D01*
X134260074Y-97825302D01*
X134220300Y-98025261D01*
X123827582Y-98025261D01*
X123722774Y-97920453D01*
X123553256Y-97807185D01*
X123364898Y-97729164D01*
X123164939Y-97689390D01*
X122961061Y-97689390D01*
X122761102Y-97729164D01*
X122572744Y-97807185D01*
X122403226Y-97920453D01*
X122259063Y-98064616D01*
X122145795Y-98234134D01*
X122067774Y-98422492D01*
X122028000Y-98622451D01*
X121549624Y-98622451D01*
X121518226Y-98464602D01*
X121440205Y-98276244D01*
X121326937Y-98106726D01*
X121182774Y-97962563D01*
X121013256Y-97849295D01*
X120824898Y-97771274D01*
X120624939Y-97731500D01*
X120421061Y-97731500D01*
X120221102Y-97771274D01*
X120032744Y-97849295D01*
X119863226Y-97962563D01*
X119719063Y-98106726D01*
X119605795Y-98276244D01*
X119527774Y-98464602D01*
X119488000Y-98664561D01*
X118965000Y-98664561D01*
X118965000Y-98654761D01*
X118925226Y-98454802D01*
X118847205Y-98266444D01*
X118733937Y-98096926D01*
X118589774Y-97952763D01*
X118420256Y-97839495D01*
X118231898Y-97761474D01*
X118031939Y-97721700D01*
X117828061Y-97721700D01*
X117628102Y-97761474D01*
X117439744Y-97839495D01*
X117270226Y-97952763D01*
X117126063Y-98096926D01*
X117015794Y-98261955D01*
X117014956Y-98261395D01*
X116826598Y-98183374D01*
X116626639Y-98143600D01*
X116422761Y-98143600D01*
X116222802Y-98183374D01*
X116034444Y-98261395D01*
X115864926Y-98374663D01*
X115720763Y-98518826D01*
X115607495Y-98688344D01*
X115529474Y-98876702D01*
X115489700Y-99076661D01*
X112795000Y-99076661D01*
X112795000Y-98958061D01*
X112755226Y-98758102D01*
X112677205Y-98569744D01*
X112563937Y-98400226D01*
X112419774Y-98256063D01*
X112250256Y-98142795D01*
X112061898Y-98064774D01*
X111861939Y-98025000D01*
X111658061Y-98025000D01*
X111458102Y-98064774D01*
X111269744Y-98142795D01*
X111100226Y-98256063D01*
X110956063Y-98400226D01*
X110842795Y-98569744D01*
X110764774Y-98758102D01*
X110725000Y-98958061D01*
X106045000Y-98958061D01*
X106045000Y-95376600D01*
X117372553Y-95376600D01*
X117358100Y-95449261D01*
%TA.AperFunction,Conductor*%
D13*
G36*
X117358100Y-95449261D02*
G01*
X117358100Y-95653139D01*
X117397874Y-95853098D01*
X117475895Y-96041456D01*
X117589163Y-96210974D01*
X117733326Y-96355137D01*
X117902844Y-96468405D01*
X118091202Y-96546426D01*
X118291161Y-96586200D01*
X118495039Y-96586200D01*
X118694998Y-96546426D01*
X118883356Y-96468405D01*
X119052874Y-96355137D01*
X119197037Y-96210974D01*
X119310305Y-96041456D01*
X119388326Y-95853098D01*
X119428100Y-95653139D01*
X119428100Y-95449261D01*
X119413647Y-95376600D01*
X122585392Y-95376600D01*
X122570800Y-95449961D01*
X122570800Y-95653839D01*
X122610574Y-95853798D01*
X122688595Y-96042156D01*
X122801863Y-96211674D01*
X122946026Y-96355837D01*
X123115544Y-96469105D01*
X123303902Y-96547126D01*
X123503861Y-96586900D01*
X123707739Y-96586900D01*
X123907698Y-96547126D01*
X124096056Y-96469105D01*
X124265574Y-96355837D01*
X124409737Y-96211674D01*
X124523005Y-96042156D01*
X124601026Y-95853798D01*
X124640800Y-95653839D01*
X124640800Y-95449961D01*
X124626208Y-95376600D01*
X140443000Y-95376600D01*
X140443000Y-95508139D01*
X140482774Y-95708098D01*
X140560795Y-95896456D01*
X140674063Y-96065974D01*
X140818226Y-96210137D01*
X140987744Y-96323405D01*
X141176102Y-96401426D01*
X141376061Y-96441200D01*
X141579939Y-96441200D01*
X141779898Y-96401426D01*
X141968256Y-96323405D01*
X142137774Y-96210137D01*
X142281937Y-96065974D01*
X142395205Y-95896456D01*
X142473226Y-95708098D01*
X142513000Y-95508139D01*
X142513000Y-95376600D01*
X142983000Y-95376600D01*
X142983000Y-95478939D01*
X143022774Y-95678898D01*
X143100795Y-95867256D01*
X143155080Y-95948500D01*
X143100795Y-96029744D01*
X143022774Y-96218102D01*
X142983000Y-96418061D01*
X142983000Y-96621939D01*
X143022774Y-96821898D01*
X143100795Y-97010256D01*
X143150570Y-97084750D01*
X143100795Y-97159244D01*
X143022774Y-97347602D01*
X142983000Y-97547561D01*
X142983000Y-97751439D01*
X143022774Y-97951398D01*
X143100795Y-98139756D01*
X143214063Y-98309274D01*
X143358226Y-98453437D01*
X143527744Y-98566705D01*
X143716102Y-98644726D01*
X143916061Y-98684500D01*
X144119939Y-98684500D01*
X144319898Y-98644726D01*
X144508256Y-98566705D01*
X144677774Y-98453437D01*
X144821937Y-98309274D01*
X144935205Y-98139756D01*
X145013226Y-97951398D01*
X145053000Y-97751439D01*
X145053000Y-97547561D01*
X145013226Y-97347602D01*
X144935205Y-97159244D01*
X144885430Y-97084750D01*
X144935205Y-97010256D01*
X145013226Y-96821898D01*
X145053000Y-96621939D01*
X145053000Y-96589261D01*
X152858700Y-96589261D01*
X152858700Y-96793139D01*
X152898474Y-96993098D01*
X152976495Y-97181456D01*
X153089763Y-97350974D01*
X153233926Y-97495137D01*
X153403444Y-97608405D01*
X153591802Y-97686426D01*
X153790840Y-97726017D01*
X153824329Y-97894377D01*
X153902350Y-98082735D01*
X154015618Y-98252253D01*
X154159781Y-98396416D01*
X154329299Y-98509684D01*
X154517657Y-98587705D01*
X154717616Y-98627479D01*
X154921494Y-98627479D01*
X155121453Y-98587705D01*
X155309811Y-98509684D01*
X155479329Y-98396416D01*
X155623492Y-98252253D01*
X155736760Y-98082735D01*
X155814781Y-97894377D01*
X155854327Y-97695561D01*
X157678200Y-97695561D01*
X157678200Y-97899439D01*
X157717974Y-98099398D01*
X157795995Y-98287756D01*
X157909263Y-98457274D01*
X158053426Y-98601437D01*
X158222944Y-98714705D01*
X158411302Y-98792726D01*
X158611261Y-98832500D01*
X158815139Y-98832500D01*
X159015098Y-98792726D01*
X159203456Y-98714705D01*
X159247522Y-98685261D01*
X169272000Y-98685261D01*
X169272000Y-98889139D01*
X169311774Y-99089098D01*
X169389795Y-99277456D01*
X169407932Y-99304600D01*
X169389795Y-99331744D01*
X169311774Y-99520102D01*
X169272000Y-99720061D01*
X169272000Y-99923939D01*
X169311774Y-100123898D01*
X169389795Y-100312256D01*
X169400234Y-100327879D01*
X169324174Y-100511502D01*
X169284400Y-100711461D01*
X169284400Y-100915339D01*
X169324174Y-101115298D01*
X169402195Y-101303656D01*
X169515463Y-101473174D01*
X169659626Y-101617337D01*
X169829144Y-101730605D01*
X170017502Y-101808626D01*
X170217461Y-101848400D01*
X170421339Y-101848400D01*
X170621298Y-101808626D01*
X170809656Y-101730605D01*
X170979174Y-101617337D01*
X171123337Y-101473174D01*
X171236605Y-101303656D01*
X171314626Y-101115298D01*
X171354400Y-100915339D01*
X171354400Y-100711461D01*
X171314626Y-100511502D01*
X171236605Y-100323144D01*
X171226166Y-100307521D01*
X171240596Y-100272685D01*
X171347163Y-100432174D01*
X171491326Y-100576337D01*
X171660844Y-100689605D01*
X171849202Y-100767626D01*
X172049161Y-100807400D01*
X172253039Y-100807400D01*
X172452998Y-100767626D01*
X172641356Y-100689605D01*
X172810874Y-100576337D01*
X172955037Y-100432174D01*
X173068305Y-100262656D01*
X173146326Y-100074298D01*
X173186100Y-99874339D01*
X173186100Y-99670461D01*
X173170705Y-99593061D01*
X176892000Y-99593061D01*
X176892000Y-99796939D01*
X176931774Y-99996898D01*
X177009795Y-100185256D01*
X177123063Y-100354774D01*
X177267226Y-100498937D01*
X177436744Y-100612205D01*
X177625102Y-100690226D01*
X177825061Y-100730000D01*
X178028939Y-100730000D01*
X178228898Y-100690226D01*
X178417256Y-100612205D01*
X178586774Y-100498937D01*
X178730937Y-100354774D01*
X178844205Y-100185256D01*
X178922226Y-99996898D01*
X178962000Y-99796939D01*
X178962000Y-99593061D01*
X178922226Y-99393102D01*
X178844205Y-99204744D01*
X178730937Y-99035226D01*
X178586774Y-98891063D01*
X178417256Y-98777795D01*
X178228898Y-98699774D01*
X178028939Y-98660000D01*
X177825061Y-98660000D01*
X177625102Y-98699774D01*
X177436744Y-98777795D01*
X177267226Y-98891063D01*
X177123063Y-99035226D01*
X177009795Y-99204744D01*
X176931774Y-99393102D01*
X176892000Y-99593061D01*
X173170705Y-99593061D01*
X173146326Y-99470502D01*
X173068305Y-99282144D01*
X172955037Y-99112626D01*
X172810874Y-98968463D01*
X172641356Y-98855195D01*
X172452998Y-98777174D01*
X172253039Y-98737400D01*
X172049161Y-98737400D01*
X171849202Y-98777174D01*
X171660844Y-98855195D01*
X171491326Y-98968463D01*
X171347163Y-99112626D01*
X171233895Y-99282144D01*
X171217504Y-99321715D01*
X171206068Y-99304600D01*
X171224205Y-99277456D01*
X171302226Y-99089098D01*
X171342000Y-98889139D01*
X171342000Y-98685261D01*
X171302226Y-98485302D01*
X171224205Y-98296944D01*
X171110937Y-98127426D01*
X170966774Y-97983263D01*
X170797256Y-97869995D01*
X170608898Y-97791974D01*
X170408939Y-97752200D01*
X170205061Y-97752200D01*
X170005102Y-97791974D01*
X169816744Y-97869995D01*
X169647226Y-97983263D01*
X169503063Y-98127426D01*
X169389795Y-98296944D01*
X169311774Y-98485302D01*
X169272000Y-98685261D01*
X159247522Y-98685261D01*
X159372974Y-98601437D01*
X159517137Y-98457274D01*
X159630405Y-98287756D01*
X159708426Y-98099398D01*
X159748200Y-97899439D01*
X159748200Y-97695561D01*
X159708426Y-97495602D01*
X159630405Y-97307244D01*
X159517137Y-97137726D01*
X159372974Y-96993563D01*
X159203456Y-96880295D01*
X159015098Y-96802274D01*
X158815139Y-96762500D01*
X158611261Y-96762500D01*
X158411302Y-96802274D01*
X158222944Y-96880295D01*
X158053426Y-96993563D01*
X157909263Y-97137726D01*
X157795995Y-97307244D01*
X157717974Y-97495602D01*
X157678200Y-97695561D01*
X155854327Y-97695561D01*
X155854555Y-97694418D01*
X155854555Y-97490540D01*
X155814781Y-97290581D01*
X155736760Y-97102223D01*
X155623492Y-96932705D01*
X155479329Y-96788542D01*
X155309811Y-96675274D01*
X155121453Y-96597253D01*
X154922415Y-96557662D01*
X154888926Y-96389302D01*
X154810905Y-96200944D01*
X154697637Y-96031426D01*
X154553474Y-95887263D01*
X154383956Y-95773995D01*
X154195598Y-95695974D01*
X153995639Y-95656200D01*
X153791761Y-95656200D01*
X153591802Y-95695974D01*
X153403444Y-95773995D01*
X153233926Y-95887263D01*
X153089763Y-96031426D01*
X152976495Y-96200944D01*
X152898474Y-96389302D01*
X152858700Y-96589261D01*
X145053000Y-96589261D01*
X145053000Y-96418061D01*
X145013226Y-96218102D01*
X144935205Y-96029744D01*
X144880920Y-95948500D01*
X144935205Y-95867256D01*
X145013226Y-95678898D01*
X145053000Y-95478939D01*
X145053000Y-95376600D01*
X150603000Y-95376600D01*
X150603000Y-95478939D01*
X150642774Y-95678898D01*
X150720795Y-95867256D01*
X150834063Y-96036774D01*
X150978226Y-96180937D01*
X151147744Y-96294205D01*
X151336102Y-96372226D01*
X151536061Y-96412000D01*
X151739939Y-96412000D01*
X151939898Y-96372226D01*
X152128256Y-96294205D01*
X152297774Y-96180937D01*
X152441937Y-96036774D01*
X152555205Y-95867256D01*
X152633226Y-95678898D01*
X152673000Y-95478939D01*
X152673000Y-95376600D01*
X160001000Y-95376600D01*
X160001000Y-95548139D01*
X160040774Y-95748098D01*
X160118795Y-95936456D01*
X160232063Y-96105974D01*
X160376226Y-96250137D01*
X160545744Y-96363405D01*
X160734102Y-96441426D01*
X160934061Y-96481200D01*
X161137939Y-96481200D01*
X161337898Y-96441426D01*
X161526256Y-96363405D01*
X161695774Y-96250137D01*
X161839937Y-96105974D01*
X161953205Y-95936456D01*
X162031226Y-95748098D01*
X162071000Y-95548139D01*
X162071000Y-95376600D01*
X166613404Y-95376600D01*
X166550774Y-95527802D01*
X166511000Y-95727761D01*
X166511000Y-95931639D01*
X166550774Y-96131598D01*
X166628795Y-96319956D01*
X166742063Y-96489474D01*
X166886226Y-96633637D01*
X167055744Y-96746905D01*
X167244102Y-96824926D01*
X167444061Y-96864700D01*
X167647939Y-96864700D01*
X167847898Y-96824926D01*
X167863466Y-96818477D01*
X167925826Y-96880837D01*
X168095344Y-96994105D01*
X168283702Y-97072126D01*
X168483661Y-97111900D01*
X168687539Y-97111900D01*
X168887498Y-97072126D01*
X169075856Y-96994105D01*
X169245374Y-96880837D01*
X169389537Y-96736674D01*
X169502805Y-96567156D01*
X169580826Y-96378798D01*
X169620600Y-96178839D01*
X169620600Y-95974961D01*
X169580826Y-95775002D01*
X169502805Y-95586644D01*
X169389537Y-95417126D01*
X169349011Y-95376600D01*
X182118000Y-95376600D01*
X182118000Y-110642800D01*
X179963072Y-110642800D01*
X179963072Y-107727000D01*
X179950812Y-107602518D01*
X179914502Y-107482820D01*
X179855537Y-107372506D01*
X179776185Y-107275815D01*
X179679494Y-107196463D01*
X179569180Y-107137498D01*
X179449482Y-107101188D01*
X179325000Y-107088928D01*
X177545000Y-107088928D01*
X177420518Y-107101188D01*
X177300820Y-107137498D01*
X177190506Y-107196463D01*
X177165000Y-107217395D01*
X177139494Y-107196463D01*
X177029180Y-107137498D01*
X176909482Y-107101188D01*
X176785000Y-107088928D01*
X175005000Y-107088928D01*
X174880518Y-107101188D01*
X174760820Y-107137498D01*
X174650506Y-107196463D01*
X174625000Y-107217395D01*
X174599494Y-107196463D01*
X174489180Y-107137498D01*
X174369482Y-107101188D01*
X174245000Y-107088928D01*
X172465000Y-107088928D01*
X172340518Y-107101188D01*
X172220820Y-107137498D01*
X172110506Y-107196463D01*
X172085000Y-107217395D01*
X172059494Y-107196463D01*
X171949180Y-107137498D01*
X171829482Y-107101188D01*
X171705000Y-107088928D01*
X169925000Y-107088928D01*
X169800518Y-107101188D01*
X169680820Y-107137498D01*
X169570506Y-107196463D01*
X169545000Y-107217395D01*
X169519494Y-107196463D01*
X169409180Y-107137498D01*
X169289482Y-107101188D01*
X169165000Y-107088928D01*
X167385000Y-107088928D01*
X167260518Y-107101188D01*
X167140820Y-107137498D01*
X167030506Y-107196463D01*
X167005000Y-107217395D01*
X166979494Y-107196463D01*
X166869180Y-107137498D01*
X166749482Y-107101188D01*
X166625000Y-107088928D01*
X164845000Y-107088928D01*
X164720518Y-107101188D01*
X164600820Y-107137498D01*
X164490506Y-107196463D01*
X164465000Y-107217395D01*
X164439494Y-107196463D01*
X164329180Y-107137498D01*
X164209482Y-107101188D01*
X164085000Y-107088928D01*
X162305000Y-107088928D01*
X162180518Y-107101188D01*
X162060820Y-107137498D01*
X161950506Y-107196463D01*
X161925000Y-107217395D01*
X161899494Y-107196463D01*
X161789180Y-107137498D01*
X161669482Y-107101188D01*
X161545000Y-107088928D01*
X159765000Y-107088928D01*
X159640518Y-107101188D01*
X159520820Y-107137498D01*
X159410506Y-107196463D01*
X159385000Y-107217395D01*
X159359494Y-107196463D01*
X159249180Y-107137498D01*
X159129482Y-107101188D01*
X159005000Y-107088928D01*
X157225000Y-107088928D01*
X157100518Y-107101188D01*
X156980820Y-107137498D01*
X156870506Y-107196463D01*
X156845000Y-107217395D01*
X156819494Y-107196463D01*
X156709180Y-107137498D01*
X156589482Y-107101188D01*
X156465000Y-107088928D01*
X154685000Y-107088928D01*
X154560518Y-107101188D01*
X154440820Y-107137498D01*
X154330506Y-107196463D01*
X154305000Y-107217395D01*
X154279494Y-107196463D01*
X154169180Y-107137498D01*
X154049482Y-107101188D01*
X153925000Y-107088928D01*
X152145000Y-107088928D01*
X152020518Y-107101188D01*
X151900820Y-107137498D01*
X151790506Y-107196463D01*
X151765000Y-107217395D01*
X151739494Y-107196463D01*
X151629180Y-107137498D01*
X151509482Y-107101188D01*
X151385000Y-107088928D01*
X149605000Y-107088928D01*
X149480518Y-107101188D01*
X149360820Y-107137498D01*
X149250506Y-107196463D01*
X149225000Y-107217395D01*
X149199494Y-107196463D01*
X149089180Y-107137498D01*
X148969482Y-107101188D01*
X148845000Y-107088928D01*
X147065000Y-107088928D01*
X146940518Y-107101188D01*
X146820820Y-107137498D01*
X146710506Y-107196463D01*
X146685000Y-107217395D01*
X146659494Y-107196463D01*
X146549180Y-107137498D01*
X146429482Y-107101188D01*
X146305000Y-107088928D01*
X144525000Y-107088928D01*
X144400518Y-107101188D01*
X144280820Y-107137498D01*
X144170506Y-107196463D01*
X144145000Y-107217395D01*
X144119494Y-107196463D01*
X144009180Y-107137498D01*
X143889482Y-107101188D01*
X143765000Y-107088928D01*
X141985000Y-107088928D01*
X141860518Y-107101188D01*
X141740820Y-107137498D01*
X141630506Y-107196463D01*
X141605000Y-107217395D01*
X141579494Y-107196463D01*
X141469180Y-107137498D01*
X141349482Y-107101188D01*
X141225000Y-107088928D01*
X139445000Y-107088928D01*
X139320518Y-107101188D01*
X139200820Y-107137498D01*
X139090506Y-107196463D01*
X139065000Y-107217395D01*
X139039494Y-107196463D01*
X138929180Y-107137498D01*
X138809482Y-107101188D01*
X138685000Y-107088928D01*
X136905000Y-107088928D01*
X136780518Y-107101188D01*
X136660820Y-107137498D01*
X136550506Y-107196463D01*
X136525000Y-107217395D01*
X136499494Y-107196463D01*
X136389180Y-107137498D01*
X136269482Y-107101188D01*
X136145000Y-107088928D01*
X134365000Y-107088928D01*
X134240518Y-107101188D01*
X134120820Y-107137498D01*
X134010506Y-107196463D01*
X133985000Y-107217395D01*
X133959494Y-107196463D01*
X133849180Y-107137498D01*
X133729482Y-107101188D01*
X133605000Y-107088928D01*
X131825000Y-107088928D01*
X131700518Y-107101188D01*
X131580820Y-107137498D01*
X131470506Y-107196463D01*
X131445000Y-107217395D01*
X131419494Y-107196463D01*
X131309180Y-107137498D01*
X131189482Y-107101188D01*
X131065000Y-107088928D01*
X129285000Y-107088928D01*
X129160518Y-107101188D01*
X129040820Y-107137498D01*
X128930506Y-107196463D01*
X128905000Y-107217395D01*
X128879494Y-107196463D01*
X128769180Y-107137498D01*
X128649482Y-107101188D01*
X128525000Y-107088928D01*
X126745000Y-107088928D01*
X126620518Y-107101188D01*
X126500820Y-107137498D01*
X126390506Y-107196463D01*
X126365000Y-107217395D01*
X126339494Y-107196463D01*
X126229180Y-107137498D01*
X126109482Y-107101188D01*
X125985000Y-107088928D01*
X124205000Y-107088928D01*
X124080518Y-107101188D01*
X123960820Y-107137498D01*
X123850506Y-107196463D01*
X123825000Y-107217395D01*
X123799494Y-107196463D01*
X123689180Y-107137498D01*
X123569482Y-107101188D01*
X123445000Y-107088928D01*
X122944460Y-107088928D01*
X122955000Y-107035939D01*
X122955000Y-106832061D01*
X122915226Y-106632102D01*
X122837205Y-106443744D01*
X122815527Y-106411300D01*
X122837205Y-106378856D01*
X122915226Y-106190498D01*
X122955000Y-105990539D01*
X122955000Y-105816061D01*
X128414990Y-105816061D01*
X128414990Y-106019939D01*
X128454764Y-106219898D01*
X128532785Y-106408256D01*
X128646053Y-106577774D01*
X128790216Y-106721937D01*
X128959734Y-106835205D01*
X129148092Y-106913226D01*
X129348051Y-106953000D01*
X129551929Y-106953000D01*
X129751888Y-106913226D01*
X129940246Y-106835205D01*
X130109764Y-106721937D01*
X130253927Y-106577774D01*
X130367195Y-106408256D01*
X130445216Y-106219898D01*
X130484990Y-106019939D01*
X130484990Y-105816061D01*
X130479341Y-105787661D01*
X162393000Y-105787661D01*
X162393000Y-105991539D01*
X162432774Y-106191498D01*
X162510795Y-106379856D01*
X162624063Y-106549374D01*
X162768226Y-106693537D01*
X162937744Y-106806805D01*
X163126102Y-106884826D01*
X163326061Y-106924600D01*
X163529939Y-106924600D01*
X163729898Y-106884826D01*
X163918256Y-106806805D01*
X164087774Y-106693537D01*
X164231937Y-106549374D01*
X164345205Y-106379856D01*
X164423226Y-106191498D01*
X164463000Y-105991539D01*
X164463000Y-105787661D01*
X164423226Y-105587702D01*
X164345205Y-105399344D01*
X164231937Y-105229826D01*
X164158972Y-105156861D01*
X169159300Y-105156861D01*
X169159300Y-105360739D01*
X169199074Y-105560698D01*
X169277095Y-105749056D01*
X169390363Y-105918574D01*
X169534526Y-106062737D01*
X169704044Y-106176005D01*
X169892402Y-106254026D01*
X170092361Y-106293800D01*
X170296239Y-106293800D01*
X170496198Y-106254026D01*
X170684556Y-106176005D01*
X170854074Y-106062737D01*
X170998237Y-105918574D01*
X171111505Y-105749056D01*
X171189526Y-105560698D01*
X171229300Y-105360739D01*
X171229300Y-105156861D01*
X171189526Y-104956902D01*
X171111505Y-104768544D01*
X170998237Y-104599026D01*
X170854074Y-104454863D01*
X170684556Y-104341595D01*
X170496198Y-104263574D01*
X170296239Y-104223800D01*
X170092361Y-104223800D01*
X169892402Y-104263574D01*
X169704044Y-104341595D01*
X169534526Y-104454863D01*
X169390363Y-104599026D01*
X169277095Y-104768544D01*
X169199074Y-104956902D01*
X169159300Y-105156861D01*
X164158972Y-105156861D01*
X164087774Y-105085663D01*
X163918256Y-104972395D01*
X163729898Y-104894374D01*
X163529939Y-104854600D01*
X163326061Y-104854600D01*
X163126102Y-104894374D01*
X162937744Y-104972395D01*
X162768226Y-105085663D01*
X162624063Y-105229826D01*
X162510795Y-105399344D01*
X162432774Y-105587702D01*
X162393000Y-105787661D01*
X130479341Y-105787661D01*
X130445216Y-105616102D01*
X130367195Y-105427744D01*
X130253927Y-105258226D01*
X130109764Y-105114063D01*
X129940246Y-105000795D01*
X129751888Y-104922774D01*
X129551929Y-104883000D01*
X129348051Y-104883000D01*
X129148092Y-104922774D01*
X128959734Y-105000795D01*
X128790216Y-105114063D01*
X128646053Y-105258226D01*
X128532785Y-105427744D01*
X128454764Y-105616102D01*
X128414990Y-105816061D01*
X122955000Y-105816061D01*
X122955000Y-105786661D01*
X122915226Y-105586702D01*
X122837205Y-105398344D01*
X122723937Y-105228826D01*
X122579774Y-105084663D01*
X122410256Y-104971395D01*
X122221898Y-104893374D01*
X122021939Y-104853600D01*
X121818061Y-104853600D01*
X121618102Y-104893374D01*
X121429744Y-104971395D01*
X121260226Y-105084663D01*
X121116063Y-105228826D01*
X121002795Y-105398344D01*
X120924774Y-105586702D01*
X120885000Y-105786661D01*
X120885000Y-105990539D01*
X120924774Y-106190498D01*
X121002795Y-106378856D01*
X121024473Y-106411300D01*
X121002795Y-106443744D01*
X120924774Y-106632102D01*
X120885000Y-106832061D01*
X120885000Y-107035939D01*
X120895540Y-107088928D01*
X119125000Y-107088928D01*
X119000518Y-107101188D01*
X118880820Y-107137498D01*
X118770506Y-107196463D01*
X118745000Y-107217395D01*
X118719494Y-107196463D01*
X118609180Y-107137498D01*
X118489482Y-107101188D01*
X118365000Y-107088928D01*
X116585000Y-107088928D01*
X116460518Y-107101188D01*
X116340820Y-107137498D01*
X116230506Y-107196463D01*
X116205000Y-107217395D01*
X116179494Y-107196463D01*
X116069180Y-107137498D01*
X115949482Y-107101188D01*
X115825000Y-107088928D01*
X115378172Y-107088928D01*
X115383600Y-107061639D01*
X115383600Y-106857761D01*
X115343826Y-106657802D01*
X115265805Y-106469444D01*
X115152537Y-106299926D01*
X115008374Y-106155763D01*
X114838856Y-106042495D01*
X114650498Y-105964474D01*
X114450539Y-105924700D01*
X114246661Y-105924700D01*
X114046702Y-105964474D01*
X113858344Y-106042495D01*
X113688826Y-106155763D01*
X113544663Y-106299926D01*
X113431395Y-106469444D01*
X113353374Y-106657802D01*
X113313600Y-106857761D01*
X113313600Y-107061639D01*
X113319708Y-107092346D01*
X113285000Y-107088928D01*
X111505000Y-107088928D01*
X111380518Y-107101188D01*
X111260820Y-107137498D01*
X111150506Y-107196463D01*
X111125000Y-107217395D01*
X111099494Y-107196463D01*
X110989180Y-107137498D01*
X110869482Y-107101188D01*
X110745000Y-107088928D01*
X108965000Y-107088928D01*
X108840518Y-107101188D01*
X108720820Y-107137498D01*
X108610506Y-107196463D01*
X108513815Y-107275815D01*
X108434463Y-107372506D01*
X108375498Y-107482820D01*
X108339188Y-107602518D01*
X108326928Y-107727000D01*
X108326928Y-110642800D01*
X106045000Y-110642800D01*
X106045000Y-102561061D01*
X121464300Y-102561061D01*
X121464300Y-102764939D01*
X121504074Y-102964898D01*
X121582095Y-103153256D01*
X121695363Y-103322774D01*
X121839526Y-103466937D01*
X122009044Y-103580205D01*
X122197402Y-103658226D01*
X122397361Y-103698000D01*
X122601239Y-103698000D01*
X122801198Y-103658226D01*
X122989556Y-103580205D01*
X123159074Y-103466937D01*
X123303237Y-103322774D01*
X123416505Y-103153256D01*
X123494526Y-102964898D01*
X123495724Y-102958874D01*
X128406009Y-102958874D01*
X128406009Y-103162752D01*
X128445783Y-103362711D01*
X128523804Y-103551069D01*
X128637072Y-103720587D01*
X128781235Y-103864750D01*
X128950753Y-103978018D01*
X129139111Y-104056039D01*
X129339070Y-104095813D01*
X129542948Y-104095813D01*
X129742907Y-104056039D01*
X129931265Y-103978018D01*
X130100783Y-103864750D01*
X130244946Y-103720587D01*
X130358214Y-103551069D01*
X130436235Y-103362711D01*
X130476009Y-103162752D01*
X130476009Y-102958874D01*
X130436235Y-102758915D01*
X130421930Y-102724381D01*
X130507737Y-102638574D01*
X130621005Y-102469056D01*
X130636271Y-102432200D01*
X130638939Y-102432200D01*
X130838898Y-102392426D01*
X131020870Y-102317050D01*
X131070495Y-102436856D01*
X131097987Y-102478000D01*
X131078444Y-102486095D01*
X130908926Y-102599363D01*
X130764763Y-102743526D01*
X130651495Y-102913044D01*
X130573474Y-103101402D01*
X130533700Y-103301361D01*
X130533700Y-103505239D01*
X130573474Y-103705198D01*
X130651495Y-103893556D01*
X130764763Y-104063074D01*
X130908926Y-104207237D01*
X131078444Y-104320505D01*
X131266802Y-104398526D01*
X131466761Y-104438300D01*
X131670639Y-104438300D01*
X131870598Y-104398526D01*
X131892241Y-104389561D01*
X142870300Y-104389561D01*
X142870300Y-104593439D01*
X142910074Y-104793398D01*
X142988095Y-104981756D01*
X143101363Y-105151274D01*
X143245526Y-105295437D01*
X143415044Y-105408705D01*
X143603402Y-105486726D01*
X143803361Y-105526500D01*
X144007239Y-105526500D01*
X144207198Y-105486726D01*
X144395556Y-105408705D01*
X144565074Y-105295437D01*
X144709237Y-105151274D01*
X144822505Y-104981756D01*
X144900526Y-104793398D01*
X144940300Y-104593439D01*
X144940300Y-104389561D01*
X144900526Y-104189602D01*
X144822505Y-104001244D01*
X144709237Y-103831726D01*
X144565074Y-103687563D01*
X144395556Y-103574295D01*
X144207198Y-103496274D01*
X144007239Y-103456500D01*
X143803361Y-103456500D01*
X143603402Y-103496274D01*
X143415044Y-103574295D01*
X143245526Y-103687563D01*
X143101363Y-103831726D01*
X142988095Y-104001244D01*
X142910074Y-104189602D01*
X142870300Y-104389561D01*
X131892241Y-104389561D01*
X132058956Y-104320505D01*
X132228474Y-104207237D01*
X132372637Y-104063074D01*
X132485905Y-103893556D01*
X132563926Y-103705198D01*
X132572244Y-103663379D01*
X132611061Y-103671100D01*
X132814939Y-103671100D01*
X133014898Y-103631326D01*
X133203256Y-103553305D01*
X133372774Y-103440037D01*
X133516937Y-103295874D01*
X133630205Y-103126356D01*
X133708226Y-102937998D01*
X133748000Y-102738039D01*
X133748000Y-102564561D01*
X144104800Y-102564561D01*
X144104800Y-102768439D01*
X144144574Y-102968398D01*
X144222595Y-103156756D01*
X144335863Y-103326274D01*
X144480026Y-103470437D01*
X144649544Y-103583705D01*
X144837902Y-103661726D01*
X145037861Y-103701500D01*
X145241739Y-103701500D01*
X145441698Y-103661726D01*
X145630056Y-103583705D01*
X145799574Y-103470437D01*
X145943737Y-103326274D01*
X146057005Y-103156756D01*
X146084311Y-103090834D01*
X146139492Y-103101810D01*
X146343370Y-103101810D01*
X146543329Y-103062036D01*
X146731687Y-102984015D01*
X146901205Y-102870747D01*
X147045368Y-102726584D01*
X147158636Y-102557066D01*
X147236657Y-102368708D01*
X147276431Y-102168749D01*
X147276431Y-101964871D01*
X147275475Y-101960061D01*
X153585600Y-101960061D01*
X153585600Y-102163939D01*
X153625374Y-102363898D01*
X153703395Y-102552256D01*
X153816663Y-102721774D01*
X153960826Y-102865937D01*
X154130344Y-102979205D01*
X154318702Y-103057226D01*
X154518661Y-103097000D01*
X154722539Y-103097000D01*
X154922498Y-103057226D01*
X155110856Y-102979205D01*
X155186056Y-102928958D01*
X155290759Y-103085658D01*
X155434922Y-103229821D01*
X155604440Y-103343089D01*
X155792798Y-103421110D01*
X155992757Y-103460884D01*
X156196635Y-103460884D01*
X156396594Y-103421110D01*
X156584952Y-103343089D01*
X156754470Y-103229821D01*
X156898633Y-103085658D01*
X157011901Y-102916140D01*
X157089922Y-102727782D01*
X157129696Y-102527823D01*
X157129696Y-102323945D01*
X157089922Y-102123986D01*
X157011901Y-101935628D01*
X156898633Y-101766110D01*
X156754470Y-101621947D01*
X156584952Y-101508679D01*
X156396594Y-101430658D01*
X156196635Y-101390884D01*
X156029230Y-101390884D01*
X156157856Y-101337605D01*
X156327374Y-101224337D01*
X156471537Y-101080174D01*
X156584805Y-100910656D01*
X156662826Y-100722298D01*
X156702600Y-100522339D01*
X156702600Y-100318461D01*
X156662826Y-100118502D01*
X156633152Y-100046861D01*
X157336300Y-100046861D01*
X157336300Y-100250739D01*
X157376074Y-100450698D01*
X157454095Y-100639056D01*
X157567363Y-100808574D01*
X157711526Y-100952737D01*
X157881044Y-101066005D01*
X158069402Y-101144026D01*
X158269361Y-101183800D01*
X158473239Y-101183800D01*
X158673198Y-101144026D01*
X158861556Y-101066005D01*
X159031074Y-100952737D01*
X159175237Y-100808574D01*
X159226294Y-100732161D01*
X160130400Y-100732161D01*
X160130400Y-100936039D01*
X160170174Y-101135998D01*
X160248195Y-101324356D01*
X160361463Y-101493874D01*
X160505626Y-101638037D01*
X160675144Y-101751305D01*
X160863502Y-101829326D01*
X161063461Y-101869100D01*
X161267339Y-101869100D01*
X161467298Y-101829326D01*
X161655656Y-101751305D01*
X161825174Y-101638037D01*
X161969337Y-101493874D01*
X162004090Y-101441861D01*
X162244900Y-101441861D01*
X162244900Y-101645739D01*
X162284674Y-101845698D01*
X162362695Y-102034056D01*
X162475963Y-102203574D01*
X162620126Y-102347737D01*
X162789644Y-102461005D01*
X162978002Y-102539026D01*
X163177961Y-102578800D01*
X163381839Y-102578800D01*
X163581798Y-102539026D01*
X163594991Y-102533561D01*
X171074700Y-102533561D01*
X171074700Y-102737439D01*
X171114474Y-102937398D01*
X171192495Y-103125756D01*
X171305763Y-103295274D01*
X171449926Y-103439437D01*
X171619444Y-103552705D01*
X171807802Y-103630726D01*
X172007761Y-103670500D01*
X172211639Y-103670500D01*
X172411598Y-103630726D01*
X172599956Y-103552705D01*
X172769474Y-103439437D01*
X172913637Y-103295274D01*
X173026905Y-103125756D01*
X173104926Y-102937398D01*
X173144700Y-102737439D01*
X173144700Y-102533561D01*
X173104926Y-102333602D01*
X173026905Y-102145244D01*
X172913637Y-101975726D01*
X172769474Y-101831563D01*
X172599956Y-101718295D01*
X172411598Y-101640274D01*
X172211639Y-101600500D01*
X172007761Y-101600500D01*
X171807802Y-101640274D01*
X171619444Y-101718295D01*
X171449926Y-101831563D01*
X171305763Y-101975726D01*
X171192495Y-102145244D01*
X171114474Y-102333602D01*
X171074700Y-102533561D01*
X163594991Y-102533561D01*
X163770156Y-102461005D01*
X163939674Y-102347737D01*
X164083837Y-102203574D01*
X164197105Y-102034056D01*
X164275126Y-101845698D01*
X164314900Y-101645739D01*
X164314900Y-101441861D01*
X164275126Y-101241902D01*
X164197105Y-101053544D01*
X164083837Y-100884026D01*
X163939674Y-100739863D01*
X163770156Y-100626595D01*
X163581798Y-100548574D01*
X163381839Y-100508800D01*
X163177961Y-100508800D01*
X162978002Y-100548574D01*
X162789644Y-100626595D01*
X162620126Y-100739863D01*
X162475963Y-100884026D01*
X162362695Y-101053544D01*
X162284674Y-101241902D01*
X162244900Y-101441861D01*
X162004090Y-101441861D01*
X162082605Y-101324356D01*
X162160626Y-101135998D01*
X162200400Y-100936039D01*
X162200400Y-100732161D01*
X162160626Y-100532202D01*
X162082605Y-100343844D01*
X161969337Y-100174326D01*
X161825174Y-100030163D01*
X161718314Y-99958761D01*
X166234300Y-99958761D01*
X166234300Y-100162639D01*
X166274074Y-100362598D01*
X166352095Y-100550956D01*
X166465363Y-100720474D01*
X166609526Y-100864637D01*
X166779044Y-100977905D01*
X166967402Y-101055926D01*
X167167361Y-101095700D01*
X167371239Y-101095700D01*
X167571198Y-101055926D01*
X167759556Y-100977905D01*
X167929074Y-100864637D01*
X168073237Y-100720474D01*
X168186505Y-100550956D01*
X168264526Y-100362598D01*
X168304300Y-100162639D01*
X168304300Y-99958761D01*
X168264526Y-99758802D01*
X168186505Y-99570444D01*
X168073237Y-99400926D01*
X167929074Y-99256763D01*
X167759556Y-99143495D01*
X167571198Y-99065474D01*
X167371239Y-99025700D01*
X167167361Y-99025700D01*
X166967402Y-99065474D01*
X166779044Y-99143495D01*
X166609526Y-99256763D01*
X166465363Y-99400926D01*
X166352095Y-99570444D01*
X166274074Y-99758802D01*
X166234300Y-99958761D01*
X161718314Y-99958761D01*
X161655656Y-99916895D01*
X161467298Y-99838874D01*
X161267339Y-99799100D01*
X161063461Y-99799100D01*
X160863502Y-99838874D01*
X160675144Y-99916895D01*
X160505626Y-100030163D01*
X160361463Y-100174326D01*
X160248195Y-100343844D01*
X160170174Y-100532202D01*
X160130400Y-100732161D01*
X159226294Y-100732161D01*
X159288505Y-100639056D01*
X159366526Y-100450698D01*
X159406300Y-100250739D01*
X159406300Y-100046861D01*
X159366526Y-99846902D01*
X159288505Y-99658544D01*
X159175237Y-99489026D01*
X159031074Y-99344863D01*
X158861556Y-99231595D01*
X158673198Y-99153574D01*
X158473239Y-99113800D01*
X158269361Y-99113800D01*
X158069402Y-99153574D01*
X157881044Y-99231595D01*
X157711526Y-99344863D01*
X157567363Y-99489026D01*
X157454095Y-99658544D01*
X157376074Y-99846902D01*
X157336300Y-100046861D01*
X156633152Y-100046861D01*
X156584805Y-99930144D01*
X156471537Y-99760626D01*
X156327374Y-99616463D01*
X156157856Y-99503195D01*
X155969498Y-99425174D01*
X155769539Y-99385400D01*
X155565661Y-99385400D01*
X155365702Y-99425174D01*
X155177344Y-99503195D01*
X155007826Y-99616463D01*
X154863663Y-99760626D01*
X154750395Y-99930144D01*
X154672374Y-100118502D01*
X154632600Y-100318461D01*
X154632600Y-100522339D01*
X154672374Y-100722298D01*
X154750395Y-100910656D01*
X154844319Y-101051223D01*
X154722539Y-101027000D01*
X154518661Y-101027000D01*
X154318702Y-101066774D01*
X154130344Y-101144795D01*
X153960826Y-101258063D01*
X153816663Y-101402226D01*
X153703395Y-101571744D01*
X153625374Y-101760102D01*
X153585600Y-101960061D01*
X147275475Y-101960061D01*
X147236657Y-101764912D01*
X147158636Y-101576554D01*
X147045368Y-101407036D01*
X146901205Y-101262873D01*
X146731687Y-101149605D01*
X146543329Y-101071584D01*
X146343370Y-101031810D01*
X146139492Y-101031810D01*
X145939533Y-101071584D01*
X145751175Y-101149605D01*
X145581657Y-101262873D01*
X145437494Y-101407036D01*
X145324226Y-101576554D01*
X145296920Y-101642476D01*
X145241739Y-101631500D01*
X145037861Y-101631500D01*
X144837902Y-101671274D01*
X144649544Y-101749295D01*
X144480026Y-101862563D01*
X144335863Y-102006726D01*
X144222595Y-102176244D01*
X144144574Y-102364602D01*
X144104800Y-102564561D01*
X133748000Y-102564561D01*
X133748000Y-102534161D01*
X133708226Y-102334202D01*
X133630205Y-102145844D01*
X133516937Y-101976326D01*
X133372774Y-101832163D01*
X133203256Y-101718895D01*
X133014898Y-101640874D01*
X132978327Y-101633600D01*
X132904905Y-101456344D01*
X132791637Y-101286826D01*
X132647474Y-101142663D01*
X132477956Y-101029395D01*
X132289598Y-100951374D01*
X132089639Y-100911600D01*
X131885761Y-100911600D01*
X131685802Y-100951374D01*
X131503830Y-101026750D01*
X131454205Y-100906944D01*
X131340937Y-100737426D01*
X131196774Y-100593263D01*
X131027256Y-100479995D01*
X130838898Y-100401974D01*
X130638939Y-100362200D01*
X130435061Y-100362200D01*
X130235102Y-100401974D01*
X130046744Y-100479995D01*
X129877226Y-100593263D01*
X129733063Y-100737426D01*
X129619795Y-100906944D01*
X129604529Y-100943800D01*
X129601861Y-100943800D01*
X129401902Y-100983574D01*
X129213544Y-101061595D01*
X129044026Y-101174863D01*
X128899863Y-101319026D01*
X128786595Y-101488544D01*
X128708574Y-101676902D01*
X128668800Y-101876861D01*
X128668800Y-102080739D01*
X128708574Y-102280698D01*
X128722879Y-102315232D01*
X128637072Y-102401039D01*
X128523804Y-102570557D01*
X128445783Y-102758915D01*
X128406009Y-102958874D01*
X123495724Y-102958874D01*
X123534300Y-102764939D01*
X123534300Y-102561061D01*
X123494526Y-102361102D01*
X123416505Y-102172744D01*
X123303237Y-102003226D01*
X123159074Y-101859063D01*
X122989556Y-101745795D01*
X122801198Y-101667774D01*
X122601239Y-101628000D01*
X122397361Y-101628000D01*
X122197402Y-101667774D01*
X122009044Y-101745795D01*
X121839526Y-101859063D01*
X121695363Y-102003226D01*
X121582095Y-102172744D01*
X121504074Y-102361102D01*
X121464300Y-102561061D01*
X106045000Y-102561061D01*
X106045000Y-100912161D01*
X113917800Y-100912161D01*
X113917800Y-101116039D01*
X113957574Y-101315998D01*
X114035595Y-101504356D01*
X114148863Y-101673874D01*
X114293026Y-101818037D01*
X114462544Y-101931305D01*
X114650902Y-102009326D01*
X114850861Y-102049100D01*
X115054739Y-102049100D01*
X115254698Y-102009326D01*
X115443056Y-101931305D01*
X115612574Y-101818037D01*
X115756737Y-101673874D01*
X115870005Y-101504356D01*
X115948026Y-101315998D01*
X115987800Y-101116039D01*
X115987800Y-100912161D01*
X115948026Y-100712202D01*
X115870005Y-100523844D01*
X115756737Y-100354326D01*
X115612574Y-100210163D01*
X115443056Y-100096895D01*
X115254698Y-100018874D01*
X115054739Y-99979100D01*
X114850861Y-99979100D01*
X114650902Y-100018874D01*
X114462544Y-100096895D01*
X114293026Y-100210163D01*
X114148863Y-100354326D01*
X114035595Y-100523844D01*
X113957574Y-100712202D01*
X113917800Y-100912161D01*
X106045000Y-100912161D01*
X106045000Y-98958061D01*
X110725000Y-98958061D01*
X110725000Y-99161939D01*
X110764774Y-99361898D01*
X110842795Y-99550256D01*
X110956063Y-99719774D01*
X111100226Y-99863937D01*
X111269744Y-99977205D01*
X111458102Y-100055226D01*
X111658061Y-100095000D01*
X111861939Y-100095000D01*
X112061898Y-100055226D01*
X112250256Y-99977205D01*
X112419774Y-99863937D01*
X112563937Y-99719774D01*
X112677205Y-99550256D01*
X112755226Y-99361898D01*
X112795000Y-99161939D01*
X112795000Y-99076661D01*
X115489700Y-99076661D01*
X115489700Y-99280539D01*
X115529474Y-99480498D01*
X115607495Y-99668856D01*
X115720763Y-99838374D01*
X115864926Y-99982537D01*
X116034444Y-100095805D01*
X116222802Y-100173826D01*
X116422761Y-100213600D01*
X116626639Y-100213600D01*
X116826598Y-100173826D01*
X117014956Y-100095805D01*
X117184474Y-99982537D01*
X117328637Y-99838374D01*
X117438906Y-99673345D01*
X117439744Y-99673905D01*
X117628102Y-99751926D01*
X117828061Y-99791700D01*
X118031939Y-99791700D01*
X118231898Y-99751926D01*
X118420256Y-99673905D01*
X118589774Y-99560637D01*
X118733937Y-99416474D01*
X118847205Y-99246956D01*
X118925226Y-99058598D01*
X118965000Y-98858639D01*
X118965000Y-98664561D01*
X119488000Y-98664561D01*
X119488000Y-98868439D01*
X119527774Y-99068398D01*
X119605795Y-99256756D01*
X119719063Y-99426274D01*
X119863226Y-99570437D01*
X120032744Y-99683705D01*
X120221102Y-99761726D01*
X120421061Y-99801500D01*
X120624939Y-99801500D01*
X120824898Y-99761726D01*
X121013256Y-99683705D01*
X121182774Y-99570437D01*
X121326937Y-99426274D01*
X121440205Y-99256756D01*
X121518226Y-99068398D01*
X121558000Y-98868439D01*
X121558000Y-98664561D01*
X121549624Y-98622451D01*
X122028000Y-98622451D01*
X122028000Y-98826329D01*
X122067774Y-99026288D01*
X122145795Y-99214646D01*
X122259063Y-99384164D01*
X122403226Y-99528327D01*
X122572744Y-99641595D01*
X122761102Y-99719616D01*
X122961061Y-99759390D01*
X123164939Y-99759390D01*
X123364898Y-99719616D01*
X123553256Y-99641595D01*
X123722774Y-99528327D01*
X123866937Y-99384164D01*
X123980205Y-99214646D01*
X124043814Y-99061079D01*
X124542701Y-99061079D01*
X124542701Y-99264957D01*
X124582475Y-99464916D01*
X124660496Y-99653274D01*
X124773764Y-99822792D01*
X124917927Y-99966955D01*
X125087445Y-100080223D01*
X125275803Y-100158244D01*
X125475762Y-100198018D01*
X125679640Y-100198018D01*
X125879599Y-100158244D01*
X126067957Y-100080223D01*
X126237475Y-99966955D01*
X126381638Y-99822792D01*
X126494906Y-99653274D01*
X126572927Y-99464916D01*
X126590581Y-99376161D01*
X126892735Y-99376161D01*
X126892735Y-99580039D01*
X126932509Y-99779998D01*
X127010530Y-99968356D01*
X127123798Y-100137874D01*
X127267961Y-100282037D01*
X127437479Y-100395305D01*
X127625837Y-100473326D01*
X127825796Y-100513100D01*
X128029674Y-100513100D01*
X128229633Y-100473326D01*
X128417991Y-100395305D01*
X128587509Y-100282037D01*
X128731672Y-100137874D01*
X128844940Y-99968356D01*
X128922961Y-99779998D01*
X128962735Y-99580039D01*
X128962735Y-99376161D01*
X128922961Y-99176202D01*
X128844940Y-98987844D01*
X128731672Y-98818326D01*
X128587509Y-98674163D01*
X128417991Y-98560895D01*
X128229633Y-98482874D01*
X128029674Y-98443100D01*
X127825796Y-98443100D01*
X127625837Y-98482874D01*
X127437479Y-98560895D01*
X127267961Y-98674163D01*
X127123798Y-98818326D01*
X127010530Y-98987844D01*
X126932509Y-99176202D01*
X126892735Y-99376161D01*
X126590581Y-99376161D01*
X126612701Y-99264957D01*
X126612701Y-99061079D01*
X126572927Y-98861120D01*
X126494906Y-98672762D01*
X126381638Y-98503244D01*
X126237475Y-98359081D01*
X126067957Y-98245813D01*
X125879599Y-98167792D01*
X125679640Y-98128018D01*
X125475762Y-98128018D01*
X125275803Y-98167792D01*
X125087445Y-98245813D01*
X124917927Y-98359081D01*
X124773764Y-98503244D01*
X124660496Y-98672762D01*
X124582475Y-98861120D01*
X124542701Y-99061079D01*
X124043814Y-99061079D01*
X124058226Y-99026288D01*
X124098000Y-98826329D01*
X124098000Y-98622451D01*
X124058226Y-98422492D01*
X123980205Y-98234134D01*
X123866937Y-98064616D01*
X123827582Y-98025261D01*
X134220300Y-98025261D01*
X134220300Y-98229139D01*
X134260074Y-98429098D01*
X134338095Y-98617456D01*
X134451363Y-98786974D01*
X134595526Y-98931137D01*
X134765044Y-99044405D01*
X134953402Y-99122426D01*
X135153361Y-99162200D01*
X135357239Y-99162200D01*
X135521218Y-99129583D01*
X135529774Y-99172598D01*
X135607795Y-99360956D01*
X135721063Y-99530474D01*
X135865226Y-99674637D01*
X136034744Y-99787905D01*
X136223102Y-99865926D01*
X136423061Y-99905700D01*
X136626939Y-99905700D01*
X136826898Y-99865926D01*
X137015256Y-99787905D01*
X137184774Y-99674637D01*
X137328937Y-99530474D01*
X137442205Y-99360956D01*
X137520226Y-99172598D01*
X137560000Y-98972639D01*
X137560000Y-98768761D01*
X137541800Y-98677261D01*
X138861300Y-98677261D01*
X138861300Y-98881139D01*
X138901074Y-99081098D01*
X138979095Y-99269456D01*
X139092363Y-99438974D01*
X139236526Y-99583137D01*
X139406044Y-99696405D01*
X139594402Y-99774426D01*
X139794361Y-99814200D01*
X139998239Y-99814200D01*
X140198198Y-99774426D01*
X140386556Y-99696405D01*
X140556074Y-99583137D01*
X140700237Y-99438974D01*
X140758036Y-99352471D01*
X144253000Y-99352471D01*
X144253000Y-99556349D01*
X144292774Y-99756308D01*
X144370795Y-99944666D01*
X144484063Y-100114184D01*
X144628226Y-100258347D01*
X144797744Y-100371615D01*
X144986102Y-100449636D01*
X145186061Y-100489410D01*
X145389939Y-100489410D01*
X145589898Y-100449636D01*
X145778256Y-100371615D01*
X145947774Y-100258347D01*
X146091937Y-100114184D01*
X146205205Y-99944666D01*
X146248037Y-99841261D01*
X150173100Y-99841261D01*
X150173100Y-100045139D01*
X150212874Y-100245098D01*
X150290895Y-100433456D01*
X150404163Y-100602974D01*
X150548326Y-100747137D01*
X150717844Y-100860405D01*
X150906202Y-100938426D01*
X151106161Y-100978200D01*
X151310039Y-100978200D01*
X151509998Y-100938426D01*
X151698356Y-100860405D01*
X151867874Y-100747137D01*
X152012037Y-100602974D01*
X152125305Y-100433456D01*
X152203326Y-100245098D01*
X152243100Y-100045139D01*
X152243100Y-99841261D01*
X152203326Y-99641302D01*
X152125305Y-99452944D01*
X152012037Y-99283426D01*
X151867874Y-99139263D01*
X151698356Y-99025995D01*
X151509998Y-98947974D01*
X151310039Y-98908200D01*
X151106161Y-98908200D01*
X150906202Y-98947974D01*
X150717844Y-99025995D01*
X150548326Y-99139263D01*
X150404163Y-99283426D01*
X150290895Y-99452944D01*
X150212874Y-99641302D01*
X150173100Y-99841261D01*
X146248037Y-99841261D01*
X146283226Y-99756308D01*
X146323000Y-99556349D01*
X146323000Y-99352471D01*
X146283226Y-99152512D01*
X146205205Y-98964154D01*
X146091937Y-98794636D01*
X145947774Y-98650473D01*
X145778256Y-98537205D01*
X145589898Y-98459184D01*
X145389939Y-98419410D01*
X145186061Y-98419410D01*
X144986102Y-98459184D01*
X144797744Y-98537205D01*
X144628226Y-98650473D01*
X144484063Y-98794636D01*
X144370795Y-98964154D01*
X144292774Y-99152512D01*
X144253000Y-99352471D01*
X140758036Y-99352471D01*
X140813505Y-99269456D01*
X140891526Y-99081098D01*
X140931300Y-98881139D01*
X140931300Y-98677261D01*
X140891526Y-98477302D01*
X140813505Y-98288944D01*
X140700237Y-98119426D01*
X140556074Y-97975263D01*
X140386556Y-97861995D01*
X140198198Y-97783974D01*
X139998239Y-97744200D01*
X139794361Y-97744200D01*
X139594402Y-97783974D01*
X139406044Y-97861995D01*
X139236526Y-97975263D01*
X139092363Y-98119426D01*
X138979095Y-98288944D01*
X138901074Y-98477302D01*
X138861300Y-98677261D01*
X137541800Y-98677261D01*
X137520226Y-98568802D01*
X137442205Y-98380444D01*
X137328937Y-98210926D01*
X137184774Y-98066763D01*
X137015256Y-97953495D01*
X136826898Y-97875474D01*
X136626939Y-97835700D01*
X136423061Y-97835700D01*
X136259082Y-97868317D01*
X136250526Y-97825302D01*
X136172505Y-97636944D01*
X136059237Y-97467426D01*
X135915074Y-97323263D01*
X135745556Y-97209995D01*
X135557198Y-97131974D01*
X135357239Y-97092200D01*
X135153361Y-97092200D01*
X134953402Y-97131974D01*
X134765044Y-97209995D01*
X134595526Y-97323263D01*
X134451363Y-97467426D01*
X134338095Y-97636944D01*
X134260074Y-97825302D01*
X134220300Y-98025261D01*
X123827582Y-98025261D01*
X123722774Y-97920453D01*
X123553256Y-97807185D01*
X123364898Y-97729164D01*
X123164939Y-97689390D01*
X122961061Y-97689390D01*
X122761102Y-97729164D01*
X122572744Y-97807185D01*
X122403226Y-97920453D01*
X122259063Y-98064616D01*
X122145795Y-98234134D01*
X122067774Y-98422492D01*
X122028000Y-98622451D01*
X121549624Y-98622451D01*
X121518226Y-98464602D01*
X121440205Y-98276244D01*
X121326937Y-98106726D01*
X121182774Y-97962563D01*
X121013256Y-97849295D01*
X120824898Y-97771274D01*
X120624939Y-97731500D01*
X120421061Y-97731500D01*
X120221102Y-97771274D01*
X120032744Y-97849295D01*
X119863226Y-97962563D01*
X119719063Y-98106726D01*
X119605795Y-98276244D01*
X119527774Y-98464602D01*
X119488000Y-98664561D01*
X118965000Y-98664561D01*
X118965000Y-98654761D01*
X118925226Y-98454802D01*
X118847205Y-98266444D01*
X118733937Y-98096926D01*
X118589774Y-97952763D01*
X118420256Y-97839495D01*
X118231898Y-97761474D01*
X118031939Y-97721700D01*
X117828061Y-97721700D01*
X117628102Y-97761474D01*
X117439744Y-97839495D01*
X117270226Y-97952763D01*
X117126063Y-98096926D01*
X117015794Y-98261955D01*
X117014956Y-98261395D01*
X116826598Y-98183374D01*
X116626639Y-98143600D01*
X116422761Y-98143600D01*
X116222802Y-98183374D01*
X116034444Y-98261395D01*
X115864926Y-98374663D01*
X115720763Y-98518826D01*
X115607495Y-98688344D01*
X115529474Y-98876702D01*
X115489700Y-99076661D01*
X112795000Y-99076661D01*
X112795000Y-98958061D01*
X112755226Y-98758102D01*
X112677205Y-98569744D01*
X112563937Y-98400226D01*
X112419774Y-98256063D01*
X112250256Y-98142795D01*
X112061898Y-98064774D01*
X111861939Y-98025000D01*
X111658061Y-98025000D01*
X111458102Y-98064774D01*
X111269744Y-98142795D01*
X111100226Y-98256063D01*
X110956063Y-98400226D01*
X110842795Y-98569744D01*
X110764774Y-98758102D01*
X110725000Y-98958061D01*
X106045000Y-98958061D01*
X106045000Y-95376600D01*
X117372553Y-95376600D01*
X117358100Y-95449261D01*
G37*
%TD.AperFunction*%
%TD*%
M02*
