%TF.GenerationSoftware,KiCad,Pcbnew,(5.1.9)-1*%
%TF.CreationDate,2021-01-10T23:00:08+11:00*%
%TF.ProjectId,30pinsimm,33307069-6e73-4696-9d6d-2e6b69636164,rev?*%
%TF.SameCoordinates,Original*%
%TF.FileFunction,Legend,Top*%
%TF.FilePolarity,Positive*%
%FSLAX46Y46*%
G04 Gerber Fmt 4.6, Leading zero omitted, Abs format (unit mm)*
G04 Created by KiCad (PCBNEW (5.1.9)-1) date 2021-01-10 23:00:08*
%MOMM*%
%LPD*%
G01*
G04 APERTURE LIST*
%ADD10C,0.150000*%
%ADD11C,0.120000*%
G04 APERTURE END LIST*
D10*
X183610428Y-109386714D02*
X183848523Y-110053380D01*
X184086619Y-109386714D01*
X184991380Y-110053380D02*
X184419952Y-110053380D01*
X184705666Y-110053380D02*
X184705666Y-109053380D01*
X184610428Y-109196238D01*
X184515190Y-109291476D01*
X184419952Y-109339095D01*
X185419952Y-109958142D02*
X185467571Y-110005761D01*
X185419952Y-110053380D01*
X185372333Y-110005761D01*
X185419952Y-109958142D01*
X185419952Y-110053380D01*
X186086619Y-109053380D02*
X186181857Y-109053380D01*
X186277095Y-109101000D01*
X186324714Y-109148619D01*
X186372333Y-109243857D01*
X186419952Y-109434333D01*
X186419952Y-109672428D01*
X186372333Y-109862904D01*
X186324714Y-109958142D01*
X186277095Y-110005761D01*
X186181857Y-110053380D01*
X186086619Y-110053380D01*
X185991380Y-110005761D01*
X185943761Y-109958142D01*
X185896142Y-109862904D01*
X185848523Y-109672428D01*
X185848523Y-109434333D01*
X185896142Y-109243857D01*
X185943761Y-109148619D01*
X185991380Y-109101000D01*
X186086619Y-109053380D01*
X159893095Y-106227619D02*
X159940714Y-106180000D01*
X160035952Y-106132380D01*
X160274047Y-106132380D01*
X160369285Y-106180000D01*
X160416904Y-106227619D01*
X160464523Y-106322857D01*
X160464523Y-106418095D01*
X160416904Y-106560952D01*
X159845476Y-107132380D01*
X160464523Y-107132380D01*
X160845476Y-106227619D02*
X160893095Y-106180000D01*
X160988333Y-106132380D01*
X161226428Y-106132380D01*
X161321666Y-106180000D01*
X161369285Y-106227619D01*
X161416904Y-106322857D01*
X161416904Y-106418095D01*
X161369285Y-106560952D01*
X160797857Y-107132380D01*
X161416904Y-107132380D01*
X127444523Y-107259380D02*
X127635000Y-107259380D01*
X127730238Y-107211761D01*
X127777857Y-107164142D01*
X127873095Y-107021285D01*
X127920714Y-106830809D01*
X127920714Y-106449857D01*
X127873095Y-106354619D01*
X127825476Y-106307000D01*
X127730238Y-106259380D01*
X127539761Y-106259380D01*
X127444523Y-106307000D01*
X127396904Y-106354619D01*
X127349285Y-106449857D01*
X127349285Y-106687952D01*
X127396904Y-106783190D01*
X127444523Y-106830809D01*
X127539761Y-106878428D01*
X127730238Y-106878428D01*
X127825476Y-106830809D01*
X127873095Y-106783190D01*
X127920714Y-106687952D01*
X102491166Y-104433714D02*
X102491166Y-105100380D01*
X102253071Y-104052761D02*
X102014976Y-104767047D01*
X102634023Y-104767047D01*
X103014976Y-105100380D02*
X103014976Y-104100380D01*
X103348309Y-104814666D01*
X103681642Y-104100380D01*
X103681642Y-105100380D01*
X104491166Y-104576571D02*
X104634023Y-104624190D01*
X104681642Y-104671809D01*
X104729261Y-104767047D01*
X104729261Y-104909904D01*
X104681642Y-105005142D01*
X104634023Y-105052761D01*
X104538785Y-105100380D01*
X104157833Y-105100380D01*
X104157833Y-104100380D01*
X104491166Y-104100380D01*
X104586404Y-104148000D01*
X104634023Y-104195619D01*
X104681642Y-104290857D01*
X104681642Y-104386095D01*
X104634023Y-104481333D01*
X104586404Y-104528952D01*
X104491166Y-104576571D01*
X104157833Y-104576571D01*
X105872119Y-105052761D02*
X106014976Y-105100380D01*
X106253071Y-105100380D01*
X106348309Y-105052761D01*
X106395928Y-105005142D01*
X106443547Y-104909904D01*
X106443547Y-104814666D01*
X106395928Y-104719428D01*
X106348309Y-104671809D01*
X106253071Y-104624190D01*
X106062595Y-104576571D01*
X105967357Y-104528952D01*
X105919738Y-104481333D01*
X105872119Y-104386095D01*
X105872119Y-104290857D01*
X105919738Y-104195619D01*
X105967357Y-104148000D01*
X106062595Y-104100380D01*
X106300690Y-104100380D01*
X106443547Y-104148000D01*
X106872119Y-105100380D02*
X106872119Y-104100380D01*
X107348309Y-105100380D02*
X107348309Y-104100380D01*
X107681642Y-104814666D01*
X108014976Y-104100380D01*
X108014976Y-105100380D01*
X108491166Y-105100380D02*
X108491166Y-104100380D01*
X108824500Y-104814666D01*
X109157833Y-104100380D01*
X109157833Y-105100380D01*
X101062452Y-96210952D02*
X100967214Y-96163333D01*
X100919595Y-96115714D01*
X100871976Y-96020476D01*
X100871976Y-95972857D01*
X100919595Y-95877619D01*
X100967214Y-95830000D01*
X101062452Y-95782380D01*
X101252928Y-95782380D01*
X101348166Y-95830000D01*
X101395785Y-95877619D01*
X101443404Y-95972857D01*
X101443404Y-96020476D01*
X101395785Y-96115714D01*
X101348166Y-96163333D01*
X101252928Y-96210952D01*
X101062452Y-96210952D01*
X100967214Y-96258571D01*
X100919595Y-96306190D01*
X100871976Y-96401428D01*
X100871976Y-96591904D01*
X100919595Y-96687142D01*
X100967214Y-96734761D01*
X101062452Y-96782380D01*
X101252928Y-96782380D01*
X101348166Y-96734761D01*
X101395785Y-96687142D01*
X101443404Y-96591904D01*
X101443404Y-96401428D01*
X101395785Y-96306190D01*
X101348166Y-96258571D01*
X101252928Y-96210952D01*
X102586261Y-95734761D02*
X101729119Y-97020476D01*
X102967214Y-96782380D02*
X103157690Y-96782380D01*
X103252928Y-96734761D01*
X103300547Y-96687142D01*
X103395785Y-96544285D01*
X103443404Y-96353809D01*
X103443404Y-95972857D01*
X103395785Y-95877619D01*
X103348166Y-95830000D01*
X103252928Y-95782380D01*
X103062452Y-95782380D01*
X102967214Y-95830000D01*
X102919595Y-95877619D01*
X102871976Y-95972857D01*
X102871976Y-96210952D01*
X102919595Y-96306190D01*
X102967214Y-96353809D01*
X103062452Y-96401428D01*
X103252928Y-96401428D01*
X103348166Y-96353809D01*
X103395785Y-96306190D01*
X103443404Y-96210952D01*
X104967214Y-96258571D02*
X105110071Y-96306190D01*
X105157690Y-96353809D01*
X105205309Y-96449047D01*
X105205309Y-96591904D01*
X105157690Y-96687142D01*
X105110071Y-96734761D01*
X105014833Y-96782380D01*
X104633880Y-96782380D01*
X104633880Y-95782380D01*
X104967214Y-95782380D01*
X105062452Y-95830000D01*
X105110071Y-95877619D01*
X105157690Y-95972857D01*
X105157690Y-96068095D01*
X105110071Y-96163333D01*
X105062452Y-96210952D01*
X104967214Y-96258571D01*
X104633880Y-96258571D01*
X105633880Y-96782380D02*
X105633880Y-96115714D01*
X105633880Y-95782380D02*
X105586261Y-95830000D01*
X105633880Y-95877619D01*
X105681500Y-95830000D01*
X105633880Y-95782380D01*
X105633880Y-95877619D01*
X105967214Y-96115714D02*
X106348166Y-96115714D01*
X106110071Y-95782380D02*
X106110071Y-96639523D01*
X106157690Y-96734761D01*
X106252928Y-96782380D01*
X106348166Y-96782380D01*
X101252928Y-97908571D02*
X100919595Y-97908571D01*
X100919595Y-98432380D02*
X100919595Y-97432380D01*
X101395785Y-97432380D01*
X101776738Y-98432380D02*
X101776738Y-97432380D01*
X102157690Y-97432380D01*
X102252928Y-97480000D01*
X102300547Y-97527619D01*
X102348166Y-97622857D01*
X102348166Y-97765714D01*
X102300547Y-97860952D01*
X102252928Y-97908571D01*
X102157690Y-97956190D01*
X101776738Y-97956190D01*
X102776738Y-98432380D02*
X102776738Y-97432380D01*
X103110071Y-98146666D01*
X103443404Y-97432380D01*
X103443404Y-98432380D01*
X104681500Y-98432380D02*
X104681500Y-97432380D01*
X104919595Y-97432380D01*
X105062452Y-97480000D01*
X105157690Y-97575238D01*
X105205309Y-97670476D01*
X105252928Y-97860952D01*
X105252928Y-98003809D01*
X105205309Y-98194285D01*
X105157690Y-98289523D01*
X105062452Y-98384761D01*
X104919595Y-98432380D01*
X104681500Y-98432380D01*
X106252928Y-98432380D02*
X105919595Y-97956190D01*
X105681500Y-98432380D02*
X105681500Y-97432380D01*
X106062452Y-97432380D01*
X106157690Y-97480000D01*
X106205309Y-97527619D01*
X106252928Y-97622857D01*
X106252928Y-97765714D01*
X106205309Y-97860952D01*
X106157690Y-97908571D01*
X106062452Y-97956190D01*
X105681500Y-97956190D01*
X106633880Y-98146666D02*
X107110071Y-98146666D01*
X106538642Y-98432380D02*
X106871976Y-97432380D01*
X107205309Y-98432380D01*
X107538642Y-98432380D02*
X107538642Y-97432380D01*
X107871976Y-98146666D01*
X108205309Y-97432380D01*
X108205309Y-98432380D01*
%TO.C,U2*%
X135636000Y-99695000D02*
X135636000Y-98298000D01*
X135636000Y-103124000D02*
X135636000Y-101727000D01*
X135636000Y-98298000D02*
X152654000Y-98298000D01*
X152654000Y-98298000D02*
X152654000Y-103124000D01*
X152654000Y-103124000D02*
X135636000Y-103124000D01*
D11*
X135636000Y-99695000D02*
G75*
G02*
X135636000Y-101727000I0J-1016000D01*
G01*
D10*
%TO.C,U1*%
X110871000Y-99695000D02*
X110871000Y-98298000D01*
X110871000Y-103124000D02*
X110871000Y-101727000D01*
X110871000Y-98298000D02*
X127889000Y-98298000D01*
X127889000Y-98298000D02*
X127889000Y-103124000D01*
X127889000Y-103124000D02*
X110871000Y-103124000D01*
D11*
X110871000Y-99695000D02*
G75*
G02*
X110871000Y-101727000I0J-1016000D01*
G01*
D10*
%TO.C,U3*%
X160147000Y-99695000D02*
X160147000Y-98298000D01*
X160147000Y-103124000D02*
X160147000Y-101727000D01*
X160147000Y-98298000D02*
X177165000Y-98298000D01*
X177165000Y-98298000D02*
X177165000Y-103124000D01*
X177165000Y-103124000D02*
X160147000Y-103124000D01*
D11*
X160147000Y-99695000D02*
G75*
G02*
X160147000Y-101727000I0J-1016000D01*
G01*
%TO.C,C3*%
X180555000Y-101211000D02*
X180555000Y-100211000D01*
X178855000Y-100211000D02*
X178855000Y-101211000D01*
%TO.C,C2*%
X134962000Y-101465000D02*
X134962000Y-100465000D01*
X133262000Y-100465000D02*
X133262000Y-101465000D01*
%TO.C,C1*%
X110324000Y-101211000D02*
X110324000Y-100211000D01*
X108624000Y-100211000D02*
X108624000Y-101211000D01*
%TO.C,U2*%
D10*
X143383095Y-100163380D02*
X143383095Y-100972904D01*
X143430714Y-101068142D01*
X143478333Y-101115761D01*
X143573571Y-101163380D01*
X143764047Y-101163380D01*
X143859285Y-101115761D01*
X143906904Y-101068142D01*
X143954523Y-100972904D01*
X143954523Y-100163380D01*
X144383095Y-100258619D02*
X144430714Y-100211000D01*
X144525952Y-100163380D01*
X144764047Y-100163380D01*
X144859285Y-100211000D01*
X144906904Y-100258619D01*
X144954523Y-100353857D01*
X144954523Y-100449095D01*
X144906904Y-100591952D01*
X144335476Y-101163380D01*
X144954523Y-101163380D01*
%TO.C,U1*%
X118618095Y-100163380D02*
X118618095Y-100972904D01*
X118665714Y-101068142D01*
X118713333Y-101115761D01*
X118808571Y-101163380D01*
X118999047Y-101163380D01*
X119094285Y-101115761D01*
X119141904Y-101068142D01*
X119189523Y-100972904D01*
X119189523Y-100163380D01*
X120189523Y-101163380D02*
X119618095Y-101163380D01*
X119903809Y-101163380D02*
X119903809Y-100163380D01*
X119808571Y-100306238D01*
X119713333Y-100401476D01*
X119618095Y-100449095D01*
%TO.C,U3*%
X167894095Y-100163380D02*
X167894095Y-100972904D01*
X167941714Y-101068142D01*
X167989333Y-101115761D01*
X168084571Y-101163380D01*
X168275047Y-101163380D01*
X168370285Y-101115761D01*
X168417904Y-101068142D01*
X168465523Y-100972904D01*
X168465523Y-100163380D01*
X168846476Y-100163380D02*
X169465523Y-100163380D01*
X169132190Y-100544333D01*
X169275047Y-100544333D01*
X169370285Y-100591952D01*
X169417904Y-100639571D01*
X169465523Y-100734809D01*
X169465523Y-100972904D01*
X169417904Y-101068142D01*
X169370285Y-101115761D01*
X169275047Y-101163380D01*
X168989333Y-101163380D01*
X168894095Y-101115761D01*
X168846476Y-101068142D01*
%TO.C,SIMM30*%
X181784952Y-97432761D02*
X181927809Y-97480380D01*
X182165904Y-97480380D01*
X182261142Y-97432761D01*
X182308761Y-97385142D01*
X182356380Y-97289904D01*
X182356380Y-97194666D01*
X182308761Y-97099428D01*
X182261142Y-97051809D01*
X182165904Y-97004190D01*
X181975428Y-96956571D01*
X181880190Y-96908952D01*
X181832571Y-96861333D01*
X181784952Y-96766095D01*
X181784952Y-96670857D01*
X181832571Y-96575619D01*
X181880190Y-96528000D01*
X181975428Y-96480380D01*
X182213523Y-96480380D01*
X182356380Y-96528000D01*
X182784952Y-97480380D02*
X182784952Y-96480380D01*
X183261142Y-97480380D02*
X183261142Y-96480380D01*
X183594476Y-97194666D01*
X183927809Y-96480380D01*
X183927809Y-97480380D01*
X184404000Y-97480380D02*
X184404000Y-96480380D01*
X184737333Y-97194666D01*
X185070666Y-96480380D01*
X185070666Y-97480380D01*
X185451619Y-96480380D02*
X186070666Y-96480380D01*
X185737333Y-96861333D01*
X185880190Y-96861333D01*
X185975428Y-96908952D01*
X186023047Y-96956571D01*
X186070666Y-97051809D01*
X186070666Y-97289904D01*
X186023047Y-97385142D01*
X185975428Y-97432761D01*
X185880190Y-97480380D01*
X185594476Y-97480380D01*
X185499238Y-97432761D01*
X185451619Y-97385142D01*
X186689714Y-96480380D02*
X186784952Y-96480380D01*
X186880190Y-96528000D01*
X186927809Y-96575619D01*
X186975428Y-96670857D01*
X187023047Y-96861333D01*
X187023047Y-97099428D01*
X186975428Y-97289904D01*
X186927809Y-97385142D01*
X186880190Y-97432761D01*
X186784952Y-97480380D01*
X186689714Y-97480380D01*
X186594476Y-97432761D01*
X186546857Y-97385142D01*
X186499238Y-97289904D01*
X186451619Y-97099428D01*
X186451619Y-96861333D01*
X186499238Y-96670857D01*
X186546857Y-96575619D01*
X186594476Y-96528000D01*
X186689714Y-96480380D01*
X180165476Y-106132380D02*
X180784523Y-106132380D01*
X180451190Y-106513333D01*
X180594047Y-106513333D01*
X180689285Y-106560952D01*
X180736904Y-106608571D01*
X180784523Y-106703809D01*
X180784523Y-106941904D01*
X180736904Y-107037142D01*
X180689285Y-107084761D01*
X180594047Y-107132380D01*
X180308333Y-107132380D01*
X180213095Y-107084761D01*
X180165476Y-107037142D01*
X181403571Y-106132380D02*
X181498809Y-106132380D01*
X181594047Y-106180000D01*
X181641666Y-106227619D01*
X181689285Y-106322857D01*
X181736904Y-106513333D01*
X181736904Y-106751428D01*
X181689285Y-106941904D01*
X181641666Y-107037142D01*
X181594047Y-107084761D01*
X181498809Y-107132380D01*
X181403571Y-107132380D01*
X181308333Y-107084761D01*
X181260714Y-107037142D01*
X181213095Y-106941904D01*
X181165476Y-106751428D01*
X181165476Y-106513333D01*
X181213095Y-106322857D01*
X181260714Y-106227619D01*
X181308333Y-106180000D01*
X181403571Y-106132380D01*
X107600714Y-107259380D02*
X107029285Y-107259380D01*
X107315000Y-107259380D02*
X107315000Y-106259380D01*
X107219761Y-106402238D01*
X107124523Y-106497476D01*
X107029285Y-106545095D01*
%TO.C,C3*%
X180062142Y-97956666D02*
X180109761Y-98004285D01*
X180157380Y-98147142D01*
X180157380Y-98242380D01*
X180109761Y-98385238D01*
X180014523Y-98480476D01*
X179919285Y-98528095D01*
X179728809Y-98575714D01*
X179585952Y-98575714D01*
X179395476Y-98528095D01*
X179300238Y-98480476D01*
X179205000Y-98385238D01*
X179157380Y-98242380D01*
X179157380Y-98147142D01*
X179205000Y-98004285D01*
X179252619Y-97956666D01*
X179157380Y-97623333D02*
X179157380Y-97004285D01*
X179538333Y-97337619D01*
X179538333Y-97194761D01*
X179585952Y-97099523D01*
X179633571Y-97051904D01*
X179728809Y-97004285D01*
X179966904Y-97004285D01*
X180062142Y-97051904D01*
X180109761Y-97099523D01*
X180157380Y-97194761D01*
X180157380Y-97480476D01*
X180109761Y-97575714D01*
X180062142Y-97623333D01*
%TO.C,C2*%
X134469142Y-98337666D02*
X134516761Y-98385285D01*
X134564380Y-98528142D01*
X134564380Y-98623380D01*
X134516761Y-98766238D01*
X134421523Y-98861476D01*
X134326285Y-98909095D01*
X134135809Y-98956714D01*
X133992952Y-98956714D01*
X133802476Y-98909095D01*
X133707238Y-98861476D01*
X133612000Y-98766238D01*
X133564380Y-98623380D01*
X133564380Y-98528142D01*
X133612000Y-98385285D01*
X133659619Y-98337666D01*
X133659619Y-97956714D02*
X133612000Y-97909095D01*
X133564380Y-97813857D01*
X133564380Y-97575761D01*
X133612000Y-97480523D01*
X133659619Y-97432904D01*
X133754857Y-97385285D01*
X133850095Y-97385285D01*
X133992952Y-97432904D01*
X134564380Y-98004333D01*
X134564380Y-97385285D01*
%TO.C,C1*%
X109958142Y-97956666D02*
X110005761Y-98004285D01*
X110053380Y-98147142D01*
X110053380Y-98242380D01*
X110005761Y-98385238D01*
X109910523Y-98480476D01*
X109815285Y-98528095D01*
X109624809Y-98575714D01*
X109481952Y-98575714D01*
X109291476Y-98528095D01*
X109196238Y-98480476D01*
X109101000Y-98385238D01*
X109053380Y-98242380D01*
X109053380Y-98147142D01*
X109101000Y-98004285D01*
X109148619Y-97956666D01*
X110053380Y-97004285D02*
X110053380Y-97575714D01*
X110053380Y-97290000D02*
X109053380Y-97290000D01*
X109196238Y-97385238D01*
X109291476Y-97480476D01*
X109339095Y-97575714D01*
%TD*%
M02*
